<?xml version="1.0" encoding="utf-8"?>
<!-- Generator: Adobe Illustrator 16.0.0, SVG Export Plug-In . SVG Version: 6.00 Build 0)  -->
<!DOCTYPE svg PUBLIC "-//W3C//DTD SVG 1.1//EN" "http://www.w3.org/Graphics/SVG/1.1/DTD/svg11.dtd">
<svg version="1.1" id="Capa_1" xmlns="http://www.w3.org/2000/svg" xmlns:xlink="http://www.w3.org/1999/xlink" x="0px" y="0px"
	 width="612px" height="792px" viewBox="0 0 612 792" enable-background="new 0 0 612 792" xml:space="preserve">
<g>
	<path fill-rule="evenodd" clip-rule="evenodd" fill="#535353" d="M51,581.944c1.397-2.146,2.589-4.465,4.233-6.401
		c3.6-4.241,8.167-6.637,13.901-6.617c8.983,0.029,17.966-0.063,26.949-0.104c1.289,0.09,2.579,0.18,3.869,0.269
		c-1.631,0.757-3.296,1.449-4.889,2.28c-8.394,4.388-11.88,14.563-8.241,23.304c2.352,5.65,7.281,8.282,12.1,11.137
		c-10.114,0.043-20.229,0.212-30.342,0.084c-6.87-0.086-11.821-3.673-15.373-9.407c-0.733-1.183-0.641-2.885-2.207-3.544
		C51,589.276,51,585.611,51,581.944z"/>
	<path fill-rule="evenodd" clip-rule="evenodd" fill="#FECB73" d="M340.002,187.031c14.979-0.012,29.96-0.085,44.938-0.016
		c12.114,0.057,21.097,9.007,21.104,21.152c0.037,56.591-0.004,113.18-0.017,169.771c-11.643,0.063-23.285,0.125-34.927,0.187
		c-5.723,0.016-11.445,0.032-17.167,0.048c-9.087-0.06-18.203-0.607-27.252-0.056c-11.047,0.674-16.774,7.959-19.603,18.005
		c-1.135-0.686-1.108-1.979-1.554-3.015c-4.333-10.084-11.287-15.686-22.952-15.249c-13.902,0.519-27.838,0.149-41.759,0.165
		c-4.967-0.061-9.935-0.12-14.903-0.181c0.011-56.752,0.045-113.503-0.001-170.255c-0.004-5.469,1.721-9.88,5.588-13.85
		c3.018-3.098,6.689-4.759,10.376-6.589c5.683-0.038,11.366-0.075,17.049-0.113c0.04,11.487,0.05,22.976,0.128,34.462
		c0.053,7.817,3.813,11.547,11.662,11.559c18.815,0.028,37.632,0.019,56.447,0.007c9.169-0.006,12.659-3.45,12.713-12.57
		C339.941,209.341,339.962,198.186,340.002,187.031z"/>
	<path fill-rule="evenodd" clip-rule="evenodd" fill="#55B7E5" d="M353.935,378.173c5.722-0.016,11.444-0.032,17.165-0.049
		c0.017,11.155,0.006,22.309,0.065,33.463c0.049,8.94,3.549,12.524,12.264,12.539c18.813,0.03,37.627,0.032,56.44,0
		c8.654-0.015,11.995-3.42,12.045-12.118c0.063-11.319,0.111-22.638,0.167-33.956c14.972-0.007,29.944-0.104,44.915,0.01
		c11.939,0.092,21.108,8.513,21.132,20.049c0.112,56.892-0.003,113.784-0.038,170.678c-60.034,0.017-120.067,0.032-180.101,0.049
		c-0.013-55.217,0.169-110.435-0.188-165.649C337.721,390.741,342.411,382.554,353.935,378.173z"/>
	<path fill-rule="evenodd" clip-rule="evenodd" fill="#F49556" d="M240.815,378.024c13.921-0.016,27.857,0.354,41.759-0.165
		c11.665-0.437,18.619,5.165,22.952,15.249c0.446,1.036,0.419,2.33,1.554,3.013c-0.018,57.607-0.034,115.215-0.052,172.824
		c-29.099,0-58.198,0.019-87.297-0.004c-30.926-0.023-61.853-0.084-92.779-0.129c0.004-56.521,0.029-113.041-0.007-169.562
		c-0.006-8.515,4.054-14.472,11.105-18.693c1.543-0.924,3.23-1.606,4.851-2.401c5.677-0.047,11.353-0.095,17.029-0.143
		c0.089,11.491,0.12,22.982,0.288,34.472c0.112,7.648,3.66,11.602,10.647,11.633c19.829,0.092,39.658,0.088,59.487-0.001
		c6.755-0.03,10.47-3.767,10.529-10.605C240.981,401.684,240.849,389.854,240.815,378.024z"/>
	<path fill-rule="evenodd" clip-rule="evenodd" fill="#808080" d="M126.953,568.813c30.926,0.045,61.853,0.105,92.779,0.129
		c29.099,0.022,58.198,0.004,87.297,0.004c10.32-0.036,20.641-0.071,30.961-0.106c60.033-0.017,120.066-0.032,180.101-0.049
		c8.156,0.052,16.313,0.115,24.469,0.153c12.08,0.058,20.394,7.615,20.366,18.537c-0.027,10.894-8.342,18.45-20.464,18.452
		c-129.536,0.014-259.072,0.014-388.607,0.003c-18.311-0.002-36.621-0.082-54.931-0.125c-4.819-2.854-9.749-5.486-12.1-11.137
		c-3.64-8.74-0.153-18.916,8.241-23.304c1.592-0.831,3.258-1.523,4.889-2.281C108.953,568.996,117.952,568.904,126.953,568.813z"/>
	<path fill-rule="evenodd" clip-rule="evenodd" fill="#D65237" d="M126.953,568.813c-9,0.092-18,0.184-27,0.276
		c-1.291-0.088-2.58-0.178-3.869-0.268c0.018-55.386,0.263-110.771-0.108-166.154c-0.094-14.095,8.92-25.97,24.987-24.759
		c7.278,0.547,14.624,0.194,21.939,0.249c-1.621,0.794-3.307,1.477-4.851,2.401c-7.051,4.221-11.111,10.178-11.105,18.693
		C126.982,455.771,126.957,512.292,126.953,568.813z"/>
	<path fill-rule="evenodd" clip-rule="evenodd" fill="#F49556" d="M241.875,187.149c-3.687,1.83-7.358,3.491-10.376,6.589
		c-3.868,3.97-5.593,8.381-5.588,13.85c0.046,56.751,0.013,113.503,0.002,170.256c-10.287,0.036-20.573,0.071-30.86,0.106
		c-0.004-56.133-0.021-112.265-0.004-168.397c0.004-13.821,8.689-22.557,22.348-22.551
		C225.557,187.007,233.716,187.098,241.875,187.149z"/>
	<path fill-rule="evenodd" clip-rule="evenodd" fill="#E7E7E6" d="M195.053,377.951c10.287-0.035,20.573-0.07,30.86-0.106
		c4.967,0.06,9.935,0.119,14.902,0.18c0.034,11.83,0.166,23.66,0.065,35.489c-0.059,6.839-3.774,10.575-10.529,10.605
		c-19.829,0.089-39.658,0.093-59.487,0.001c-6.987-0.031-10.535-3.984-10.647-11.633c-0.168-11.49-0.199-22.981-0.288-34.472
		C171.638,377.993,183.345,377.972,195.053,377.951z"/>
	<path fill-rule="evenodd" clip-rule="evenodd" fill="#E7E7E6" d="M452.081,378.053c-0.056,11.318-0.104,22.636-0.167,33.956
		c-0.05,8.698-3.391,12.104-12.045,12.118c-18.813,0.032-37.627,0.03-56.44,0c-8.715-0.015-12.215-3.599-12.264-12.539
		c-0.06-11.154-0.049-22.309-0.065-33.463c11.644-0.061,23.286-0.123,34.929-0.186C421.38,377.977,436.73,378.015,452.081,378.053z"
		/>
	<path fill-rule="evenodd" clip-rule="evenodd" fill="#E7E7E6" d="M340.002,187.031c-0.04,11.155-0.061,22.31-0.127,33.463
		c-0.054,9.12-3.544,12.564-12.713,12.57c-18.815,0.012-37.632,0.021-56.447-0.007c-7.849-0.012-11.609-3.742-11.662-11.559
		c-0.078-11.487-0.089-22.976-0.128-34.462C285.95,187.034,312.977,187.032,340.002,187.031z"/>
	<path fill-rule="evenodd" clip-rule="evenodd" fill="#517FCE" d="M337.989,568.839c-10.32,0.035-20.641,0.07-30.961,0.106
		c0.018-57.609,0.034-115.217,0.052-172.824c2.828-10.044,8.556-17.329,19.603-18.003c9.049-0.552,18.165-0.004,27.252,0.056
		c-11.523,4.38-16.214,12.567-16.133,25.016C338.158,458.404,337.977,513.622,337.989,568.839z"/>
</g>
</svg>
