<?xml version="1.0" encoding="utf-8"?>
<!-- Generator: Adobe Illustrator 16.0.0, SVG Export Plug-In . SVG Version: 6.00 Build 0)  -->
<!DOCTYPE svg PUBLIC "-//W3C//DTD SVG 1.1//EN" "http://www.w3.org/Graphics/SVG/1.1/DTD/svg11.dtd">
<svg version="1.1" id="Capa_1" xmlns="http://www.w3.org/2000/svg" xmlns:xlink="http://www.w3.org/1999/xlink" x="0px" y="0px"
	 width="612px" height="792px" viewBox="0 0 612 792" enable-background="new 0 0 612 792" xml:space="preserve">
<g>
	<path fill-rule="evenodd" clip-rule="evenodd" fill="#DDE9EC" d="M114.75,569.954c0-2.499,0-4.999,0-7.499
		c17.99,0.001,35.981-0.096,53.97,0.084c3.614,0.035,4.608-0.973,4.601-4.597c-0.113-57.218-0.083-114.438-0.086-171.656
		c1.771-0.059,3.542-0.117,5.313-0.175c0.022,9.322,0.14,18.645,0.01,27.964c-0.039,2.843,0.669,4.27,3.727,3.849
		c0.718-0.099,1.478,0.114,2.219,0.184c-0.005,46.731,0.023,93.463-0.083,140.194c-0.008,3.287,0.875,4.27,4.202,4.229
		c14.742-0.173,29.488-0.172,44.23,0c3.327,0.04,4.209-0.942,4.202-4.229c-0.105-46.731-0.078-93.463-0.083-140.194
		c3.758-0.34,7.516-0.337,11.274,0c-0.004,46.719,0.022,93.438-0.079,140.156c-0.007,3.229,0.776,4.312,4.159,4.271
		c14.738-0.18,29.48-0.167,44.219-0.007c3.243,0.035,4.282-0.8,4.263-4.172c-0.143-25.356-0.085-50.715-0.09-76.073
		c3.756,0.009,7.513,0.018,11.27,0.026c-0.003,17.985-0.006,35.97-0.008,53.954c-0.001,7.119,0.001,14.238,0.004,21.356
		c0.001,3.159,0.879,4.978,4.744,4.923c14.859-0.21,29.725-0.169,44.585-0.018c3.181,0.032,3.972-1.028,3.964-4.072
		c-0.099-36.094-0.072-72.188-0.079-108.281c3.763-0.001,7.524-0.002,11.287-0.003c-0.007,36.176,0.019,72.354-0.078,108.529
		c-0.008,2.965,0.871,3.863,3.826,3.82c10.852-0.154,21.708,0.073,32.558-0.125c4.706-0.085,9.372-0.945,13.878-2.512
		c1.665-0.578,2.387-1.437,2.325-3.244c-0.118-3.489-0.04-6.984-0.044-10.478c3.757,0,7.514,0.001,11.271,0.002
		c0,2.181,0,4.362,0,7.269c3.344-2.462,6.865-3.577,8.238-7.284c0.75-0.07,1.499-0.142,2.249-0.212c5.269,0,10.536,0,16.074,0
		c0.048-9.59,0.44-18.629-0.135-27.672c0.598-1.299,0.211-2.554-0.166-3.81c0.098-0.244,0.094-0.486-0.01-0.728v-0.002
		c0.08-0.074,0.235-0.155,0.229-0.223c-0.019-0.206-0.099-0.407-0.154-0.61c-0.001-0.452-0.002-0.905-0.002-1.357
		c0.064-0.092,0.193-0.192,0.182-0.273c-0.027-0.21-0.117-0.411-0.182-0.616c0.084-0.725,0.168-1.449,0.252-2.176
		c1.982-1.027,1.117-2.885,1.118-4.355c0.043-71.27,0.036-142.54,0.035-213.811c10.25-0.021,20.501-0.041,30.752-0.062
		c0,93.238,0,186.477,0,279.715c-3.445,6.479-8.843,8.372-16.076,8.362c-117.267-0.164-234.534-0.164-351.801,0
		C123.591,578.326,118.195,576.433,114.75,569.954z"/>
	<path fill-rule="evenodd" clip-rule="evenodd" fill="#DC636E" d="M498.702,290.239c-10.251,0.021-20.502,0.041-30.752,0.062
		c-9.245,0-18.49,0-27.735,0c-3.753-0.001-7.505-0.001-11.259-0.002c-17.494,0-34.989,0-52.484,0c-3.753,0-7.506,0.001-11.259,0.002
		c-17.496-0.004-34.993-0.007-52.49-0.011c-3.998,0-7.996,0-11.994,0.001c-17.497,0.003-34.993,0.007-52.49,0.01
		c-3.753-0.001-7.506-0.001-11.259-0.002c-17.495,0-34.99,0-52.485,0c-3.753,0-7.505,0.001-11.258,0.002
		c-19.496-0.021-38.992-0.041-58.487-0.062c0-14.998,0-29.996,0-44.994c2.434-4.344,5.241-8.299,10.885-8.345
		c7.097-0.058,14.196,0.064,21.294,0.109c0,6.901,0,13.803,0,20.684c7.319,0,14.066,0,21.083,0c0-7.142,0-13.962,0-20.783
		c17.745-0.031,35.489-0.063,53.234-0.094c0.034,5.858,0.189,11.721,0.046,17.575c-0.066,2.679,0.578,3.825,3.507,3.688
		c4.853-0.226,9.731-0.228,14.583,0.001c2.96,0.139,3.544-1.075,3.489-3.717c-0.12-5.854,0.044-11.714,0.092-17.572
		c17.74,0.056,35.479,0.111,53.219,0.167c0,6.907,0,13.814,0,20.753c7.305,0,14.053,0,21.085,0c0-7.12,0-13.936,0-20.753
		c17.739-0.056,35.479-0.111,53.22-0.166c0.048,5.981,0.175,11.965,0.104,17.946c-0.027,2.299,0.498,3.416,3.099,3.33
		c5.106-0.17,10.227-0.167,15.334-0.001c2.565,0.083,3.157-0.964,3.12-3.301c-0.092-5.981,0.026-11.966,0.06-17.95
		c17.744,0.031,35.488,0.063,53.233,0.094c0,6.911,0,13.823,0,20.82c7.294,0,14.042,0,21.084,0c0-7.096,0-13.909,0-20.721
		c5.604-0.059,11.233,0.187,16.808-0.252c7.161-0.563,12.318,1.907,15.372,8.488C498.702,260.243,498.702,275.241,498.702,290.239z"
		/>
	<path fill-rule="evenodd" clip-rule="evenodd" fill="#F0F3F5" d="M114.75,290.239c19.496,0.021,38.991,0.041,58.487,0.062
		c0.006,10.504,0.013,21.01,0.02,31.514c-10.963,0.041-21.928,0.196-32.889,0.053c-3.338-0.044-4.623,0.782-4.507,4.357
		c0.257,7.966,0.067,15.947,0.094,23.921c0.004,1.21-0.317,2.513,0.918,3.882c4.066,0,8.418-0.134,12.757,0.049
		c2.661,0.113,5.443-0.857,7.989,0.672c-0.054,9.618-0.073,19.235-0.188,28.852c-0.024,2.006,0.821,2.587,2.692,2.571
		c4.37-0.039,8.741,0.067,13.112,0.115c0.002,57.218-0.027,114.438,0.086,171.656c0.007,3.624-0.987,4.632-4.601,4.597
		c-17.989-0.18-35.98-0.083-53.97-0.084C114.75,471.717,114.75,380.978,114.75,290.239z"/>
	<path fill-rule="evenodd" clip-rule="evenodd" fill="#FEFEFE" d="M221.247,236.816c-17.745,0.031-35.489,0.063-53.234,0.094
		c-0.001-6.114-0.073-12.23,0.033-18.343c0.04-2.311-0.545-3.442-3.123-3.365c-4.987,0.149-9.983,0.125-14.973,0.008
		c-2.304-0.054-3.054,0.847-3.022,3.081c0.086,6.239,0.012,12.479,0.001,18.719c-7.099-0.045-14.197-0.167-21.294-0.109
		c-5.645,0.046-8.452,4.001-10.885,8.345c0-13.488,0-26.975,0-40.479c127.984,0,255.968,0,383.952,0c0,13.504,0,26.991,0,40.479
		c-3.054-6.581-8.211-9.051-15.372-8.488c-5.574,0.438-11.203,0.193-16.809,0.252c-0.011-6.239-0.085-12.479,0.002-18.718
		c0.031-2.233-0.717-3.137-3.021-3.082c-4.864,0.117-9.74,0.188-14.598-0.023c-2.947-0.127-3.58,1.103-3.512,3.754
		c0.153,5.986,0.047,11.979,0.046,17.969c-17.745-0.031-35.489-0.063-53.233-0.094c0.004-5.857-0.083-11.717,0.053-17.572
		c0.065-2.792-0.744-4.155-3.797-4.044c-4.73,0.17-9.476,0.17-14.206,0c-3.028-0.109-3.891,1.202-3.823,4.02
		c0.14,5.855,0.051,11.715,0.057,17.573c-17.74,0.055-35.48,0.11-53.221,0.167c-0.005-6.114-0.115-12.232,0.033-18.344
		c0.064-2.643-0.869-3.504-3.463-3.417c-4.736,0.16-9.486,0.16-14.223,0c-2.591-0.087-3.528,0.772-3.464,3.417
		c0.149,6.111,0.038,12.229,0.033,18.343c-17.74-0.056-35.479-0.111-53.219-0.166c0.005-5.858-0.083-11.718,0.056-17.572
		c0.067-2.817-0.795-4.13-3.823-4.021c-4.73,0.17-9.476,0.17-14.206,0c-3.053-0.111-3.862,1.25-3.797,4.044
		C221.33,225.098,221.243,230.958,221.247,236.816z"/>
	<path fill-rule="evenodd" clip-rule="evenodd" fill="#FEFEFE" d="M114.75,569.954c3.445,6.479,8.841,8.372,16.075,8.362
		c117.267-0.164,234.534-0.164,351.801,0c7.233,0.01,12.631-1.883,16.076-8.362c0,6.249,0,12.499,0,18.748
		c-127.984,0-255.968,0-383.952,0C114.75,582.453,114.75,576.203,114.75,569.954z"/>
	<path fill-rule="evenodd" clip-rule="evenodd" fill="#F0F3F5" d="M248.239,290.301c17.497-0.003,34.993-0.007,52.49-0.01
		c0.006,42.513,0.012,85.025,0.018,127.537c-7.479,0.053-14.958,0.199-22.435,0.106c-2.657-0.033-3.746,0.607-3.729,3.526
		c0.108,19.079,0.1,38.158-0.023,57.237c-0.019,2.916,1.043,3.554,3.721,3.512c7.477-0.116,14.958,0.029,22.438,0.072
		c0.005,25.358-0.053,50.717,0.09,76.073c0.019,3.372-1.02,4.207-4.263,4.172c-14.738-0.16-29.48-0.173-44.219,0.007
		c-3.383,0.041-4.167-1.041-4.159-4.271c0.101-46.719,0.075-93.438,0.079-140.156c7.728-0.061,15.456-0.198,23.182-0.137
		c2.432,0.02,3.266-0.779,3.229-3.225c-0.118-7.729-0.011-15.462-0.067-23.192c-0.013-1.689,0.475-3.475-0.837-5.565
		c-8.332,0-16.91,0-25.488,0C248.257,354.093,248.248,322.197,248.239,290.301z"/>
	<path fill-rule="evenodd" clip-rule="evenodd" fill="#F0F3F5" d="M376.472,290.299c17.495,0,34.99,0,52.484,0
		c-0.003,63.89-0.008,127.779-0.012,191.67c-12.163,0-24.325,0-36.502,0c0,11.025,0,21.396,0,32c7.05,0,13.771,0,20.491,0
		c0.056,0.24,0.192,0.421,0.409,0.539c0,10.425,0,20.848,0,31.651c5.642,0,10.625,0,15.607,0c0.004,3.493-0.074,6.988,0.044,10.478
		c0.062,1.808-0.66,2.666-2.325,3.244c-4.506,1.566-9.172,2.427-13.878,2.512c-10.85,0.198-21.706-0.029-32.558,0.125
		c-2.955,0.043-3.834-0.855-3.826-3.82c0.097-36.176,0.071-72.354,0.078-108.529c8.673,0,17.344,0,25.973,0
		c0-11.121,0-21.42,0-32.356c-8.837,0-17.423,0-26.007-0.001C376.458,375.307,376.465,332.802,376.472,290.299z"/>
	<path fill-rule="evenodd" clip-rule="evenodd" fill="#F0F3F5" d="M236.972,418.107c0.005,46.731-0.022,93.463,0.083,140.194
		c0.007,3.287-0.875,4.27-4.202,4.229c-14.742-0.172-29.488-0.173-44.23,0c-3.327,0.04-4.209-0.942-4.202-4.229
		c0.106-46.731,0.078-93.463,0.083-140.194C201.993,418.107,219.483,418.107,236.972,418.107z"/>
	<path fill-rule="evenodd" clip-rule="evenodd" fill="#4174C8" d="M376.451,417.812c8.584,0,17.17,0,26.007,0
		c0,10.937,0,21.235,0,32.356c-8.629,0-17.3,0-25.973,0c-3.763,0.001-7.524,0.002-11.287,0.003
		c-8.495-0.009-16.99-0.019-25.485-0.027c-0.449-0.071-0.734,0.065-0.726,0.574c-0.051,9.214-0.205,18.429-0.094,27.64
		c0.035,2.875-0.679,3.938-3.749,3.871c-7.715-0.171-15.438,0.029-23.156,0.08c-3.757-0.009-7.514-0.018-11.27-0.026
		c-7.479-0.043-14.961-0.188-22.438-0.072c-2.677,0.042-3.739-0.596-3.721-3.512c0.123-19.079,0.131-38.158,0.023-57.237
		c-0.016-2.919,1.073-3.56,3.729-3.526c7.477,0.093,14.957-0.054,22.435-0.106c3.986,0,7.972,0,11.958,0.001
		c17.51-0.008,35.019-0.015,52.529-0.022C368.973,417.809,372.712,417.81,376.451,417.812z"/>
	<path fill-rule="evenodd" clip-rule="evenodd" fill="#F0F3F5" d="M440.215,290.301c9.245,0,18.49,0,27.735,0
		c0.001,71.271,0.008,142.541-0.035,213.811c-0.001,1.471,0.864,3.328-1.118,4.355c0-8.645,0-17.288,0-26.501
		c-9.272,0-17.921,0-26.57,0C440.224,418.078,440.219,354.189,440.215,290.301z"/>
	<path fill-rule="evenodd" clip-rule="evenodd" fill="#F0F3F5" d="M311.988,482.309c7.719-0.051,15.441-0.251,23.156-0.08
		c3.07,0.067,3.784-0.996,3.749-3.871c-0.111-9.211,0.043-18.426,0.094-27.64c0.242-0.191,0.484-0.383,0.726-0.574
		c8.495,0.009,16.99,0.019,25.485,0.027c0.007,36.094-0.02,72.188,0.079,108.281c0.008,3.044-0.783,4.104-3.964,4.072
		c-14.86-0.151-29.726-0.192-44.585,0.018c-3.865,0.055-4.743-1.764-4.744-4.923c-0.003-7.118-0.005-14.237-0.004-21.356
		C311.982,518.278,311.985,500.294,311.988,482.309z"/>
	<path fill-rule="evenodd" clip-rule="evenodd" fill="#9BCF69" d="M236.972,418.107c-17.489,0-34.979,0-52.468,0
		c-0.741-0.069-1.501-0.282-2.219-0.184c-3.058,0.421-3.766-1.006-3.727-3.849c0.129-9.319,0.012-18.642-0.01-27.964
		c1.309-1.085,2.869-0.611,4.313-0.613c19.907-0.034,39.814-0.026,59.721-0.027c1.8,1.211,3.765,0.614,5.684,0.518
		c8.578,0,17.156,0,25.488,0c1.312,2.09,0.824,3.876,0.837,5.565c0.056,7.73-0.051,15.463,0.067,23.192
		c0.038,2.445-0.797,3.244-3.229,3.225c-7.727-0.062-15.455,0.076-23.182,0.137C244.488,417.771,240.73,417.768,236.972,418.107z"/>
	<path fill-rule="evenodd" clip-rule="evenodd" fill="#8BC752" d="M242.582,385.471c-19.907,0.001-39.814-0.006-59.721,0.027
		c-1.444,0.002-3.004-0.472-4.313,0.613c-1.771,0.059-3.542,0.117-5.313,0.175c-4.371-0.047-8.742-0.154-13.112-0.115
		c-1.871,0.016-2.716-0.565-2.692-2.571c0.115-9.616,0.134-19.234,0.188-28.852c16.282-0.007,32.564-0.001,48.846-0.042
		c1.436-0.004,3.01,0.494,4.267-0.712c8.748-0.032,17.495-0.063,26.242-0.095c1.116,0.046,2.234,0.163,3.346,0.123
		c1.711-0.062,2.533,0.657,2.516,2.4C242.74,366.105,242.665,375.788,242.582,385.471z"/>
	<path fill-rule="evenodd" clip-rule="evenodd" fill="#E18324" d="M440.227,481.966c8.649,0,17.298,0,26.57,0
		c0,9.213,0,17.856,0,26.501c-0.084,0.727-0.168,1.451-0.253,2.176c0.001,0.296,0.001,0.593,0.001,0.89
		c0,0.452,0.001,0.905,0.001,1.357c-0.024,0.277-0.05,0.556-0.074,0.833v0.002c-5.369,0.001-10.737-0.021-16.104,0.007
		c-12.478,0.066-24.956,0.157-37.434,0.237c-6.721,0-13.441,0-20.491,0c0-10.604,0-20.975,0-32c12.177,0,24.339,0,36.502,0
		C432.705,481.968,436.467,481.967,440.227,481.966z"/>
	<path fill-rule="evenodd" clip-rule="evenodd" fill="#DC6939" d="M428.95,546.159c-4.982,0-9.966,0-15.607,0
		c0-10.804,0-21.227,0-31.651c17.713-0.019,35.426-0.037,53.139-0.056c0.377,1.256,0.764,2.511,0.166,3.81
		c-1.247,0.541-1.225,1.846-1.517,2.839c-2.095,7.138-5.764,13.413-10.166,19.339c-1.383,1.862-3.843,2.893-4.257,5.494
		c-0.75,0.07-1.499,0.142-2.25,0.212c-2.745,0.005-5.491,0.011-8.237,0.016C436.464,546.16,432.707,546.159,428.95,546.159z"/>
	<path fill-rule="evenodd" clip-rule="evenodd" fill="#DC542E" d="M450.708,545.934c0.414-2.602,2.874-3.632,4.257-5.494
		c4.402-5.926,8.071-12.201,10.166-19.339c0.292-0.993,0.27-2.298,1.517-2.839c0.575,9.043,0.183,18.082,0.135,27.672
		C461.244,545.934,455.977,545.934,450.708,545.934z"/>
	<path fill-rule="evenodd" clip-rule="evenodd" fill="#E2976C" d="M466.481,514.452c-17.713,0.019-35.426,0.037-53.139,0.056
		c-0.217-0.118-0.354-0.299-0.409-0.539c12.478-0.08,24.956-0.171,37.434-0.237c5.367-0.028,10.735-0.006,16.104-0.007
		C466.575,513.966,466.579,514.208,466.481,514.452z"/>
	<path fill-rule="evenodd" clip-rule="evenodd" fill="#F0F3F5" d="M440.221,546.161c2.746-0.005,5.492-0.011,8.237-0.016
		c-1.372,3.707-4.894,4.822-8.237,7.284C440.221,550.523,440.221,548.342,440.221,546.161z"/>
	<path fill-rule="evenodd" clip-rule="evenodd" fill="#E2976C" d="M466.545,511.532c0-0.297,0-0.594-0.001-0.89
		c0.065,0.205,0.155,0.406,0.183,0.616C466.738,511.34,466.609,511.44,466.545,511.532z"/>
	<path fill-rule="evenodd" clip-rule="evenodd" fill="#E2976C" d="M466.472,513.723c0.024-0.277,0.05-0.556,0.074-0.833
		c0.057,0.203,0.137,0.404,0.155,0.61C466.707,513.567,466.552,513.648,466.472,513.723z"/>
	<path fill-rule="evenodd" clip-rule="evenodd" fill="#F0F3F5" d="M365.234,417.807c-17.511,0.008-35.02,0.015-52.529,0.022
		c0.006-42.514,0.012-85.026,0.018-127.539c17.497,0.003,34.994,0.007,52.49,0.011C365.22,332.802,365.227,375.305,365.234,417.807z
		"/>
	<path fill-rule="evenodd" clip-rule="evenodd" fill="#F0F3F5" d="M236.975,353.9c-8.747,0.032-17.495,0.063-26.242,0.095
		c0.002-9.087,0.007-18.174,0.006-27.261c-0.001-4.787-0.006-4.778-4.983-4.799c-7.094-0.03-14.187-0.076-21.28-0.114
		c0.006-10.507,0.014-21.014,0.02-31.521c17.496,0,34.991,0,52.485,0C236.979,311.499,236.977,332.699,236.975,353.9z"/>
	<path fill-rule="evenodd" clip-rule="evenodd" fill="#DDE9EC" d="M440.227,481.966c-3.76,0.001-7.521,0.002-11.282,0.003
		c0.004-63.891,0.009-127.78,0.012-191.67c3.754,0,7.506,0.001,11.259,0.002C440.219,354.189,440.224,418.078,440.227,481.966z"/>
	<path fill-rule="evenodd" clip-rule="evenodd" fill="#DDE9EC" d="M312.723,290.29c-0.006,42.513-0.012,85.025-0.018,127.539
		c-3.986-0.001-7.973-0.001-11.958-0.001c-0.006-42.512-0.012-85.024-0.018-127.537C304.727,290.291,308.725,290.291,312.723,290.29
		z"/>
	<path fill-rule="evenodd" clip-rule="evenodd" fill="#DDE9EC" d="M365.234,417.807c-0.008-42.502-0.015-85.004-0.021-127.506
		c3.753-0.001,7.506-0.001,11.259-0.002c-0.007,42.503-0.014,85.008-0.021,127.512C372.712,417.81,368.973,417.809,365.234,417.807z
		"/>
	<path fill-rule="evenodd" clip-rule="evenodd" fill="#DDE9EC" d="M221.247,236.816c-0.004-5.858,0.083-11.718-0.053-17.572
		c-0.065-2.793,0.745-4.155,3.797-4.044c4.73,0.17,9.475,0.17,14.206,0c3.028-0.109,3.89,1.203,3.823,4.021
		c-0.14,5.854-0.051,11.714-0.056,17.572c-0.048,5.857-0.212,11.717-0.092,17.571c0.055,2.643-0.529,3.856-3.489,3.717
		c-4.852-0.229-9.73-0.227-14.583-0.001c-2.929,0.136-3.573-1.009-3.507-3.688C221.437,248.537,221.281,242.674,221.247,236.816z"/>
	<path fill-rule="evenodd" clip-rule="evenodd" fill="#DDE9EC" d="M370.488,236.792c-0.006-5.858,0.083-11.718-0.057-17.573
		c-0.067-2.817,0.795-4.129,3.823-4.02c4.73,0.17,9.476,0.17,14.206,0c3.053-0.111,3.862,1.251,3.797,4.044
		c-0.136,5.855-0.049,11.715-0.053,17.572c-0.033,5.984-0.151,11.968-0.06,17.95c0.037,2.337-0.555,3.384-3.12,3.301
		c-5.107-0.166-10.228-0.169-15.334,0.001c-2.601,0.086-3.126-1.03-3.099-3.33C370.663,248.757,370.536,242.774,370.488,236.792z"/>
	<path fill-rule="evenodd" clip-rule="evenodd" fill="#DDE9EC" d="M146.93,237.009c0.011-6.24,0.085-12.48-0.001-18.719
		c-0.031-2.233,0.719-3.134,3.022-3.081c4.989,0.116,9.986,0.141,14.973-0.008c2.577-0.077,3.163,1.055,3.123,3.365
		c-0.106,6.113-0.035,12.229-0.033,18.343c0,6.82,0,13.641,0,20.783c-7.017,0-13.764,0-21.083,0
		C146.93,250.812,146.93,243.911,146.93,237.009z"/>
	<path fill-rule="evenodd" clip-rule="evenodd" fill="#DDE9EC" d="M296.184,236.958c0.005-6.115,0.116-12.232-0.033-18.343
		c-0.064-2.645,0.873-3.503,3.464-3.417c4.737,0.16,9.487,0.16,14.223,0c2.594-0.087,3.527,0.774,3.463,3.417
		c-0.148,6.111-0.038,12.229-0.033,18.344c0.001,6.816,0.001,13.633,0.001,20.752c-7.032,0-13.78,0-21.085,0
		C296.184,250.772,296.184,243.866,296.184,236.958z"/>
	<path fill-rule="evenodd" clip-rule="evenodd" fill="#DDE9EC" d="M445.438,236.91c0.001-5.99,0.107-11.983-0.046-17.969
		c-0.068-2.651,0.564-3.881,3.512-3.754c4.857,0.21,9.733,0.14,14.598,0.023c2.305-0.055,3.053,0.849,3.021,3.082
		c-0.087,6.238-0.013,12.479-0.002,18.718c0.001,6.812,0.001,13.625,0.001,20.721c-7.042,0-13.79,0-21.084,0
		C445.438,250.733,445.438,243.821,445.438,236.91z"/>
	<path fill-rule="evenodd" clip-rule="evenodd" fill="#DDE9EC" d="M236.975,353.9c0.002-21.201,0.004-42.401,0.006-63.601
		c3.753,0,7.506,0.001,11.259,0.002c0.009,31.896,0.018,63.792,0.026,95.688c-1.919,0.096-3.883,0.693-5.684-0.518
		c0.083-9.683,0.158-19.366,0.254-29.048c0.017-1.743-0.805-2.461-2.516-2.4C239.208,354.063,238.09,353.946,236.975,353.9z"/>
	<path fill-rule="evenodd" clip-rule="evenodd" fill="#DDE9EC" d="M184.495,290.299c-0.006,10.507-0.014,21.014-0.02,31.521
		c-3.739-0.001-7.479-0.003-11.218-0.004c-0.006-10.504-0.013-21.01-0.02-31.514C176.99,290.3,180.742,290.299,184.495,290.299z"/>
	<path fill-rule="evenodd" clip-rule="evenodd" fill="#9BCF69" d="M173.257,321.815c3.74,0.001,7.479,0.003,11.218,0.004
		c7.093,0.04,14.187,0.085,21.28,0.115c4.977,0.021,4.982,0.012,4.983,4.799c0.001,9.087-0.003,18.174-0.006,27.261
		c-1.257,1.206-2.831,0.708-4.267,0.712c-16.282,0.041-32.564,0.035-48.846,0.042c-2.546-1.529-5.329-0.559-7.989-0.672
		c-4.339-0.183-8.691-0.049-12.757-0.049c-1.235-1.37-0.914-2.672-0.918-3.882c-0.026-7.974,0.163-15.955-0.094-23.921
		c-0.115-3.575,1.169-4.401,4.507-4.357C151.329,322.011,162.294,321.856,173.257,321.815z"/>
	<path fill-rule="evenodd" clip-rule="evenodd" fill="#DDE9EC" d="M339.713,450.144c-0.241,0.191-0.483,0.383-0.726,0.574
		C338.979,450.209,339.264,450.072,339.713,450.144z"/>
</g>
</svg>
