<?xml version="1.0" encoding="utf-8"?>
<!-- Generator: Adobe Illustrator 16.0.0, SVG Export Plug-In . SVG Version: 6.00 Build 0)  -->
<!DOCTYPE svg PUBLIC "-//W3C//DTD SVG 1.1//EN" "http://www.w3.org/Graphics/SVG/1.1/DTD/svg11.dtd">
<svg version="1.1" id="Capa_1" xmlns="http://www.w3.org/2000/svg" xmlns:xlink="http://www.w3.org/1999/xlink" x="0px" y="0px"
	 width="612px" height="792px" viewBox="0 0 612 792" enable-background="new 0 0 612 792" xml:space="preserve">
<g>
	<path fill-rule="evenodd" clip-rule="evenodd" fill="#C5865C" d="M114.75,533.959c0-56.993,0-113.986,0-170.979
		c2.993-6.462,8.096-8.739,15.08-8.336c6.45,0.371,12.942,0.004,19.416-0.038c26.244,0.001,52.489,0.001,78.733,0.001
		c26.258-0.001,52.516-0.003,78.774-0.004l0.053,0.176c-0.025,1.124-0.074,2.247-0.074,3.37c0,61.312,0.004,122.623,0.007,183.935
		c-1.621,0.041-3.243,0.118-4.865,0.119c-34.605,0.018-69.21,0.028-103.814,0.039c-17.543,0.001-35.087,0.001-52.63,0.001
		c-5.216-0.012-10.453-0.321-15.644,0.038C122.818,542.763,117.739,540.39,114.75,533.959z M242.958,435.687
		c0-8.507,0.106-16.606-0.034-24.702c-0.111-6.402-5.083-11.234-11.205-11.229c-5.954,0.007-11.118,4.745-11.147,10.882
		c-0.12,25.226-0.123,50.452,0.002,75.677c0.031,6.138,5.219,10.872,11.166,10.867c6.118-0.005,11.071-4.845,11.186-11.255
		c0.139-7.74,0.017-15.485,0.058-23.228c0.007-1.329-0.356-2.733,0.478-4.076c9.531,0,19.059,0,28.886,0
		c0,1.659-0.001,3.019,0,4.379c0.004,7.617-0.12,15.238,0.051,22.853c0.144,6.445,5.085,11.294,11.146,11.327
		c6.32,0.035,11.105-4.845,11.23-11.549c0.075-3.995,0.021-7.993,0.021-11.988c-0.001-20.731,0.032-41.461-0.026-62.191
		c-0.019-6.772-4.741-11.64-11.067-11.697c-6.203-0.055-11.085,4.891-11.335,11.54c-0.075,1.995-0.02,3.995-0.021,5.993
		c-0.001,6.073,0,12.146,0,18.397C262.38,435.687,252.94,435.687,242.958,435.687z"/>
	<path fill-rule="evenodd" clip-rule="evenodd" fill="#AE705C" d="M306.737,542.084c-0.003-61.313-0.007-122.623-0.007-183.935
		c0-1.124,0.049-2.247,0.074-3.37c7.471-0.053,14.942-0.107,22.413-0.16c3.244,0.038,6.488,0.11,9.733,0.108
		c37.326-0.024,74.653-0.062,111.979-0.095c11.19,0.033,22.388,0.336,33.566-0.001c6.782-0.204,11.528,2.058,14.205,8.349
		c0,56.993,0,113.986,0,170.979c-2.708,6.283-7.448,8.78-14.263,8.326c-5.46-0.363-10.966-0.035-16.453-0.015
		c-17.518,0-35.036,0.001-52.555,0.002c-16.742-0.022-33.484-0.037-50.227-0.066C345.716,542.172,326.227,542.125,306.737,542.084z
		 M358.485,459.545c0.661-1.327,1.733-1.508,2.586-1.97c11.845-6.408,18.529-18.831,16.641-30.982
		c-2.117-13.621-12.047-23.951-25.751-26.218c-9.037-1.495-18.215-0.782-27.307-0.436c-5.463,0.209-9.628,5.125-9.647,10.689
		c-0.091,25.245-0.089,50.491,0.006,75.737c0.018,4.666,2.569,8.054,6.828,9.912c7.454,3.252,15.393-2.222,15.581-10.729
		c0.109-4.903,0.021-9.811,0.021-15.673c1.589,1.736,2.43,2.625,3.237,3.543c5.784,6.563,11.527,13.161,17.354,19.688
		c3.071,3.441,6.914,4.853,11.482,3.67c4.404-1.141,7.103-4.06,8.135-8.433c0.973-4.123-0.48-7.591-3.204-10.667
		C369.079,471.616,363.746,465.525,358.485,459.545z"/>
	<path fill-rule="evenodd" clip-rule="evenodd" fill="#F1D0A5" d="M234.735,204.75c6.945,1.992,13.761,4.167,19.721,8.554
		c21.836,16.073,24.927,46.776,6.629,66.839c-0.501,0.55-0.93,1.166-1.394,1.751c-8.986,8.159-19.247,13.146-31.678,12.731
		c-0.009-29.958-0.018-59.917-0.027-89.876C230.235,204.75,232.485,204.75,234.735,204.75z"/>
	<path fill-rule="evenodd" clip-rule="evenodd" fill="#FEE3C1" d="M227.986,204.75c0.009,29.959,0.018,59.918,0.027,89.876
		l-0.039,0.236c-12.144-0.359-22.637-4.738-31.552-12.959c-6.438-6.727-10.83-14.537-12.62-23.739
		c-4.488-23.072,10.046-46.052,32.832-51.906c1.795-0.461,3.569-1.003,5.353-1.507C223.986,204.75,225.986,204.75,227.986,204.75z"
		/>
	<path fill-rule="evenodd" clip-rule="evenodd" fill="#AE705C" d="M198.058,542.242c-0.023,10.465-0.334,20.938,0.033,31.389
		c0.245,6.973-1.898,12.075-8.35,15.071c-11.999,0-23.997,0-35.996,0c-6.456-2.993-8.599-8.093-8.351-15.07
		c0.371-10.45,0.057-20.925,0.034-31.389C162.971,542.243,180.515,542.243,198.058,542.242z"/>
	<path fill-rule="evenodd" clip-rule="evenodd" fill="#63544F" d="M423.711,588.702c-6.447-2.979-8.608-8.058-8.351-15.033
		c0.384-10.453,0.082-20.931,0.071-31.397c17.519,0,35.037-0.001,52.556-0.001c-0.01,10.466-0.313,20.944,0.072,31.396
		c0.257,6.978-1.922,12.045-8.353,15.035C447.708,588.702,435.71,588.702,423.711,588.702z"/>
	<path fill-rule="evenodd" clip-rule="evenodd" fill="#2EBDEE" d="M228.013,294.626c12.431,0.415,22.692-4.572,31.678-12.731
		c28.139,7.801,47.021,32.637,47.037,61.864c0.001,3.615,0.016,7.229,0.024,10.844c-26.258,0.001-52.516,0.003-78.774,0.004
		c-0.001-19.915-0.003-39.83-0.004-59.745L228.013,294.626z"/>
	<path fill-rule="evenodd" clip-rule="evenodd" fill="#46F7FE" d="M227.974,294.862c0.001,19.915,0.002,39.83,0.004,59.745
		c-26.244,0-52.489,0-78.733-0.001c-0.047-9.708-0.482-19.461,2.526-28.89c7.165-22.454,22.109-37.014,44.651-43.813
		C205.337,290.124,215.83,294.503,227.974,294.862z"/>
	<path fill-rule="evenodd" clip-rule="evenodd" fill="#453D83" d="M329.218,354.619c0.002-3.374-0.017-6.749,0.01-10.123
		c0.059-7.686,4.66-12.221,12.452-12.258c5.373-0.025,10.751-0.126,16.119,0.053c2.255,0.075,3.258-0.71,4.065-2.771
		c5.28-13.463,10.693-26.874,16.073-40.298c3.073-7.668,5.792-9.481,14.169-9.482c23.368-0.001,46.736-0.007,70.105,0.002
		c10.734,0.004,15.681,7.235,11.72,17.208c-7.641,19.238-15.33,38.456-23,57.682c-37.327,0.033-74.654,0.07-111.98,0.095
		C335.706,354.729,332.462,354.656,329.218,354.619z"/>
	<path fill-rule="evenodd" clip-rule="evenodd" fill="#E1DEF2" d="M358.485,459.545c5.261,5.98,10.594,12.071,15.961,18.132
		c2.724,3.076,4.177,6.544,3.204,10.667c-1.032,4.373-3.73,7.292-8.135,8.433c-4.568,1.183-8.411-0.229-11.482-3.67
		c-5.826-6.526-11.569-13.125-17.354-19.688c-0.808-0.918-1.648-1.807-3.237-3.543c0,5.862,0.089,10.77-0.021,15.673
		c-0.188,8.508-8.127,13.981-15.581,10.729c-4.259-1.858-6.811-5.246-6.828-9.912c-0.095-25.246-0.097-50.492-0.006-75.737
		c0.02-5.564,4.185-10.48,9.647-10.689c9.092-0.347,18.27-1.06,27.307,0.436c13.704,2.267,23.634,12.597,25.751,26.218
		c1.889,12.151-4.796,24.574-16.641,30.982C360.219,458.037,359.146,458.218,358.485,459.545z M337.686,438.6
		c3.517,0,6.65,0.257,9.725-0.062c4.575-0.472,7.988-4.109,8.019-8.029c0.031-4.059-3.571-7.777-8.287-8.167
		c-3.066-0.254-6.17-0.048-9.456-0.048C337.686,427.829,337.686,433.012,337.686,438.6z"/>
	<path fill-rule="evenodd" clip-rule="evenodd" fill="#AE705C" d="M337.686,438.6c0-5.588,0-10.771,0-16.306
		c3.286,0,6.39-0.206,9.456,0.048c4.716,0.39,8.318,4.108,8.287,8.167c-0.03,3.92-3.443,7.558-8.019,8.029
		C344.336,438.856,341.202,438.6,337.686,438.6z"/>
</g>
</svg>
