<?xml version="1.0" encoding="utf-8"?>
<!-- Generator: Adobe Illustrator 16.0.0, SVG Export Plug-In . SVG Version: 6.00 Build 0)  -->
<!DOCTYPE svg PUBLIC "-//W3C//DTD SVG 1.1//EN" "http://www.w3.org/Graphics/SVG/1.1/DTD/svg11.dtd">
<svg version="1.1" id="Capa_1" xmlns="http://www.w3.org/2000/svg" xmlns:xlink="http://www.w3.org/1999/xlink" x="0px" y="0px"
	 width="612px" height="792px" viewBox="0 0 612 792" enable-background="new 0 0 612 792" xml:space="preserve">
<g>
	<path fill-rule="evenodd" clip-rule="evenodd" fill="#FEFEFE" d="M309.777,204.75c63.009,0,126.018,0,189.026,0
		c0,128.018,0,256.036,0,384.054c-24.504,0-49.007,0-73.51,0c3.449-2.206,4.89-5.402,4.309-9.39
		c-0.53-3.637,0.808-5.567,4.526-5.788c0.318-0.019,0.617-0.359,0.925-0.551c2.426-0.181,4.493-1.403,6.625-2.373
		c6.086-2.771,6.066-2.812,10.974,1.665c3.121,2.847,6.471,3.197,9.351,0.464c5.337-5.067,10.531-10.294,15.627-15.604
		c2.525-2.632,2.399-6.003,0.017-8.789c-1.052-1.229-2.165-2.448-3.433-3.44c-1.752-1.37-1.693-2.645-0.589-4.441
		c1.958-3.184,3.762-6.588,4.455-10.216c0.893-4.666,3.27-5.767,7.708-5.435c5.338,0.399,7.797-2.286,7.857-7.56
		c0.056-4.992-0.142-9.99,0.048-14.975c0.351-9.245-0.553-12.879-11.354-11.943c-1.477,0.129-2.624-0.125-3.071-1.915
		c-1.422-5.7-4-10.943-7.182-16.843c1.286-1.009,2.777-1.965,4.01-3.183c4.581-4.523,4.569-7.568,0.093-12.101
		c-4.558-4.614-9.118-9.226-13.679-13.838c0.033-0.248,0.096-0.495,0.096-0.743c0.02-44.98,0.024-89.961,0.077-134.941
		c0.003-2.421-1.047-3.866-3.018-5.134c-35.99-23.172-71.961-46.375-107.907-69.613C337.73,223.049,323.769,213.876,309.777,204.75z
		"/>
	<path fill-rule="evenodd" clip-rule="evenodd" fill="#3C87CF" d="M435.054,573.075c-0.308,0.191-0.606,0.532-0.925,0.551
		c-3.719,0.221-5.057,2.151-4.526,5.788c0.581,3.987-0.859,7.184-4.309,9.39c-8.752,0-17.503,0-26.254,0
		c-3.886-2.513-4.36-6.356-3.888-10.439c0.302-2.609-0.714-3.8-3.206-4.417c-4.484-1.11-8.712-2.976-12.7-5.292
		c-1.82-1.056-3.172-1.083-4.47,0.675c-0.511,0.693-1.216,1.245-1.837,1.856c-4.558,4.489-7.505,4.498-12.038,0
		c-4.065-4.034-8.069-8.134-12.183-12.119c-1.647-1.595-2.964-3.333-3.69-5.507c0.124-2.932,1.741-5.049,3.659-7.089
		c1.211-1.287,3.232-2.125,2.954-4.434c-1.637-3.631-3.423-7.205-4.878-10.908c-2.306-5.863-2.212-5.9-8.497-6.197
		c-4.566-0.216-7.272-2.499-7.37-6.774c-0.163-7.112-0.158-14.232,0.012-21.344c0.09-3.743,2.777-6.11,6.572-6.303
		c1.493-0.076,3.014-0.168,4.488,0.016c2.159,0.269,3.15-0.628,3.656-2.662c1.118-4.501,2.889-8.783,5.254-12.754
		c1.48-2.484,1.079-4.152-1.315-5.532c-5.942-6.656-5.907-8.138,0.325-14.477c0.435-0.442,0.829-0.926,1.241-1.391
		c3.576-3.484,7.14-6.979,10.73-10.449c3.297-3.185,6.958-3.311,10.221-0.133c1.595,1.553,2.829,3.475,4.14,5.12
		c4.671-2.78,8.639-4.564,12.771-5.99c6.074-2.096,6.07-2.11,6.223-8.649c0.11-4.734,2.188-6.879,6.839-6.906
		c7.247-0.042,14.496-0.02,21.743-0.024c4.132,1.059,6.127,3.21,5.791,7.762c-0.328,4.448,0.765,7.172,5.528,7.599
		c0.22,0.021,0.42,0.25,0.629,0.382c0.01,1.093,0.724,1.788,1.354,2.578c4.041,5.067,7.719,10.41,10.605,16.202
		c6.043,12.129,9.568,24.887,10.787,38.511c1.074,11.996-0.333,23.531-3.309,34.981
		C451.461,549.014,444.308,561.615,435.054,573.075z M441.085,507.452c0.479-14.844-11.995-28.735-29.062-28.801
		c-15.62-0.061-28.744,13.396-28.652,29.126c0.092,15.665,13.228,28.912,28.964,28.653
		C428.702,536.16,441.159,523.807,441.085,507.452z"/>
	<path fill-rule="evenodd" clip-rule="evenodd" fill="#70D7A3" d="M309.777,204.75c13.991,9.126,27.953,18.299,41.981,27.367
		c35.946,23.239,71.917,46.441,107.907,69.613c1.971,1.268,3.021,2.712,3.018,5.134c-0.053,44.98-0.058,89.961-0.077,134.941
		c0,0.248-0.063,0.495-0.096,0.743c-4.564-2.594-7.191-2.278-11.031,1.325c-4.237,3.977-4.237,3.977-8.958,0.858
		c0.007-41.253-0.038-82.505,0.114-123.757c0.014-3.531-1.289-5.422-4.058-7.197c-29.479-18.9-58.898-37.895-88.341-56.851
		c-15.194-9.783-30.483-19.419-45.562-29.376c-5.376-3.55-11.176-6.514-15.991-10.897c5.093-3.223,10.198-6.428,15.269-9.686
		c1.001-0.644,2.334-0.908,2.824-2.218C307.777,204.75,308.777,204.75,309.777,204.75z"/>
	<path fill-rule="evenodd" clip-rule="evenodd" fill="#9AE59D" d="M288.685,216.654c4.814,4.383,10.614,7.347,15.991,10.897
		c15.079,9.958,30.368,19.594,45.562,29.376c29.442,18.957,58.862,37.951,88.341,56.851c2.769,1.775,4.071,3.666,4.058,7.197
		c-0.152,41.252-0.107,82.504-0.114,123.757c-2.391-0.383-4.28-2.235-6.776-2.311c-0.209-0.132-0.409-0.361-0.629-0.382
		c-4.764-0.427-5.856-3.15-5.528-7.599c0.336-4.552-1.659-6.703-5.791-7.761c-0.013-25.949-0.027-51.899-0.041-77.849
		c5.117-0.524,6.692-2.257,6.72-7.436c0.017-3.372,0.004-6.743,0.003-10.115c-0.002-7.539-1.288-8.807-8.956-8.807
		c-25.848,0.001-51.695,0.009-77.543,0.01c-52.57,0.001-105.14-0.003-157.709,0.006c-5.201,0-6.982,1.773-7.008,6.906
		c-0.021,4.121-0.028,8.241,0.002,12.361c0.036,4.89,1.65,6.568,6.681,7.048c-0.015,6.114-0.041,12.229-0.043,18.342
		c-0.021,58.327-0.039,116.653-0.058,174.979c-12.953-0.064-25.906-0.13-38.86-0.195c0.02-41.846,0.045-83.691,0.057-125.538
		c0.009-35.849,0.054-71.701-0.077-107.55c-0.013-3.66,0.976-5.755,4.242-7.754c44.701-27.355,89.291-54.894,133.911-82.381
		C286.286,217.989,287.495,217.337,288.685,216.654z M307.906,268.642c3.495,0,6.991,0.069,10.484-0.019
		c3.682-0.093,6.152-2.418,6.2-5.644c0.047-3.215-2.426-5.723-6.065-5.778c-6.864-0.103-13.732-0.106-20.596,0.002
		c-3.593,0.057-6.087,2.639-6.008,5.827c0.079,3.203,2.57,5.5,6.249,5.595C301.413,268.708,304.66,268.642,307.906,268.642z
		 M308.65,280.393c-3.621,0-7.244-0.1-10.86,0.029c-3.415,0.122-5.799,2.513-5.87,5.585c-0.074,3.196,2.431,5.77,6.012,5.821
		c6.865,0.098,13.732,0.097,20.597,0c3.629-0.05,6.107-2.556,6.061-5.779c-0.047-3.229-2.499-5.537-6.204-5.646
		C315.144,280.307,311.896,280.383,308.65,280.393z"/>
	<path fill-rule="evenodd" clip-rule="evenodd" fill="#4F66CF" d="M146.985,541.932c12.954,0.065,25.907,0.131,38.86,0.197
		c12.574-0.025,25.147-0.052,37.722-0.078c22.369,0.028,44.738,0.058,67.107,0.067c1.114,0,2.228-0.179,3.342-0.272
		c4.756,0.462,9.514,0.46,14.271,0c14.449,0.592,28.902,0.223,43.354,0.192c0.278,2.309-1.743,3.146-2.954,4.434
		c-1.918,2.04-3.535,4.157-3.659,7.089c-72.481,0.005-144.962,0.009-217.444,0.014c-0.5,0-1.001,0.017-1.5-0.009
		c-3.709-0.188-6.069-2.399-6.112-5.717c-0.043-3.307,2.3-5.653,6.029-5.727C132.995,541.985,139.991,541.987,146.985,541.932z"/>
	<path fill-rule="evenodd" clip-rule="evenodd" fill="#4F66CF" d="M435.745,442.422c2.496,0.075,4.386,1.928,6.776,2.311
		c4.721,3.118,4.721,3.118,8.958-0.858c3.84-3.604,6.467-3.919,11.031-1.325c4.561,4.612,9.121,9.224,13.679,13.838
		c4.477,4.532,4.488,7.577-0.093,12.101c-1.232,1.218-2.724,2.174-4.01,3.183c3.182,5.899,5.76,11.143,7.182,16.843
		c0.447,1.79,1.595,2.044,3.071,1.915c10.801-0.936,11.704,2.698,11.354,11.943c-0.189,4.984,0.008,9.982-0.048,14.975
		c-0.061,5.273-2.52,7.959-7.857,7.56c-4.438-0.332-6.815,0.769-7.708,5.435c-0.693,3.628-2.497,7.032-4.455,10.216
		c-1.104,1.797-1.163,3.071,0.589,4.441c1.268,0.992,2.381,2.211,3.433,3.44c2.383,2.786,2.509,6.157-0.017,8.789
		c-5.096,5.311-10.29,10.537-15.627,15.604c-2.88,2.733-6.229,2.383-9.351-0.464c-4.907-4.477-4.888-4.436-10.974-1.665
		c-2.132,0.97-4.199,2.192-6.625,2.373c9.254-11.46,16.407-24.062,20.129-38.381c2.976-11.45,4.383-22.985,3.309-34.981
		c-1.219-13.624-4.744-26.382-10.787-38.511c-2.887-5.792-6.564-11.135-10.605-16.202
		C436.469,444.21,435.755,443.515,435.745,442.422z"/>
	<path fill-rule="evenodd" clip-rule="evenodd" fill="#004280" d="M223.567,542.05c-12.574,0.027-25.147,0.054-37.721,0.079
		c0.018-58.328,0.036-116.654,0.057-174.981c0.002-6.114,0.028-12.228,0.044-18.342c1.498-0.021,2.995-0.061,4.493-0.061
		c68.536-0.003,137.072-0.006,205.609,0c9.235,0.002,18.472,0.057,27.707,0.087c0.014,25.949,0.028,51.899,0.041,77.849
		c-7.247,0.004-14.496-0.019-21.743,0.023c-4.65,0.027-6.729,2.172-6.839,6.906c-0.152,6.539-0.148,6.554-6.223,8.649
		c-4.133,1.426-8.101,3.21-12.771,5.99c-1.311-1.646-2.545-3.567-4.14-5.12c-3.263-3.178-6.924-3.052-10.221,0.133
		c-3.591,3.47-7.154,6.965-10.73,10.45c-0.034-0.622-0.099-1.245-0.1-1.867c-0.006-17.855-0.036-35.71,0.021-53.563
		c0.011-3.342-1.228-5.255-4.741-5.23c-9.235,0.065-18.47,0.146-27.705,0.221c-6.709-0.007-13.417-0.013-20.126-0.02
		c-8.861-0.044-17.722-0.113-26.583-0.126c-4.928-0.007-5.854,0.94-5.855,5.96c-0.009,23.722,0.004,47.443,0.009,71.164
		c-3.39,0.105-6.781,0.213-10.172,0.318c-9.236-0.054-18.472-0.144-27.708-0.143c-3.185,0.001-4.708,1.658-4.698,4.945
		C223.54,497.598,223.543,519.824,223.567,542.05z"/>
	<path fill-rule="evenodd" clip-rule="evenodd" fill="#FEC244" d="M266.05,470.252c-0.005-23.721-0.018-47.442-0.009-71.164
		c0.001-5.02,0.927-5.968,5.855-5.96c8.861,0.013,17.722,0.082,26.583,0.126c-0.004,7.721,0.091,15.444-0.062,23.163
		c-0.058,2.942,1.176,4.102,3.929,4.096c3.985-0.009,7.972-0.063,11.955,0.023c3.144,0.066,4.461-1.221,4.391-4.474
		c-0.164-7.594-0.073-15.192-0.086-22.788c9.235-0.075,18.47-0.156,27.705-0.221c3.514-0.025,4.752,1.888,4.741,5.23
		c-0.058,17.854-0.027,35.708-0.021,53.563c0.001,0.622,0.065,1.245,0.1,1.867c-0.412,0.464-0.807,0.947-1.241,1.39
		c-6.232,6.339-6.268,7.82-0.325,14.476c-1.128,1.178-2.586,0.687-3.899,0.693c-12.473,0.069-24.944,0.088-37.417,0.12
		c-4.728,0.009-9.456,0.019-14.185,0.028c-6.051-0.006-12.103-0.012-18.154-0.018C272.623,470.353,269.336,470.302,266.05,470.252z"
		/>
	<path fill-rule="evenodd" clip-rule="evenodd" fill="#FEFEFE" d="M441.085,507.452c0.074,16.354-12.383,28.708-28.75,28.979
		c-15.736,0.259-28.872-12.988-28.964-28.653c-0.092-15.73,13.032-29.187,28.652-29.126
		C429.09,478.717,441.563,492.608,441.085,507.452z"/>
	<path fill-rule="evenodd" clip-rule="evenodd" fill="#D57E4A" d="M308.247,470.393c12.473-0.033,24.944-0.052,37.417-0.121
		c1.313-0.007,2.771,0.484,3.899-0.693c2.395,1.381,2.796,3.049,1.315,5.533c-2.365,3.971-4.136,8.253-5.254,12.754
		c-0.506,2.034-1.497,2.931-3.656,2.662c-1.475-0.184-2.995-0.092-4.488-0.016c-3.795,0.192-6.482,2.56-6.572,6.303
		c-0.17,7.111-0.175,14.231-0.012,21.344c0.098,4.275,2.804,6.559,7.37,6.774c6.285,0.297,6.191,0.334,8.497,6.197
		c1.455,3.703,3.241,7.277,4.878,10.908c-14.452,0.03-28.905,0.399-43.354-0.19C308.273,518.03,308.261,494.212,308.247,470.393z"/>
	<path fill-rule="evenodd" clip-rule="evenodd" fill="#FEFEFE" d="M423.756,348.832c-9.235-0.03-18.472-0.085-27.707-0.087
		c-68.537-0.007-137.073-0.004-205.609,0c-1.498,0-2.995,0.04-4.493,0.061c-5.032-0.48-6.646-2.158-6.682-7.048
		c-0.031-4.121-0.023-8.241-0.002-12.361c0.026-5.133,1.807-6.906,7.008-6.906c52.569-0.009,105.139-0.004,157.709-0.006
		c25.848-0.001,51.695-0.009,77.543-0.01c7.668,0,8.954,1.269,8.956,8.807c0.001,3.372,0.014,6.743-0.003,10.115
		C430.448,346.575,428.873,348.308,423.756,348.832z"/>
	<path fill-rule="evenodd" clip-rule="evenodd" fill="#004280" d="M307.906,268.642c-3.246,0-6.493,0.066-9.736-0.017
		c-3.679-0.096-6.169-2.393-6.249-5.595c-0.079-3.188,2.416-5.77,6.008-5.827c6.864-0.108,13.731-0.105,20.596-0.002
		c3.64,0.055,6.112,2.563,6.065,5.778c-0.048,3.226-2.519,5.551-6.2,5.644C314.897,268.711,311.401,268.642,307.906,268.642z"/>
	<path fill-rule="evenodd" clip-rule="evenodd" fill="#004280" d="M308.65,280.388c3.245-0.004,6.493-0.081,9.736,0.015
		c3.705,0.109,6.157,2.417,6.204,5.646c0.047,3.223-2.432,5.729-6.061,5.779c-6.865,0.096-13.732,0.098-20.597,0
		c-3.581-0.051-6.086-2.625-6.012-5.821c0.07-3.072,2.455-5.463,5.87-5.585C301.406,280.293,305.03,280.393,308.65,280.388z"/>
	<path fill-rule="evenodd" clip-rule="evenodd" fill="#D57E4A" d="M275.909,470.402c6.051,0.006,12.103,0.012,18.154,0.016
		c-0.016,23.809-0.031,47.618-0.046,71.428c-1.114,0.094-2.228,0.272-3.342,0.272c-22.369-0.01-44.738-0.039-67.107-0.067
		c-0.025-22.227-0.028-44.453-0.096-66.678c-0.01-3.287,1.513-4.944,4.698-4.945c9.236-0.001,18.472,0.089,27.708,0.143
		c-0.009,7.616,0.086,15.235-0.077,22.85c-0.07,3.288,1.255,4.5,4.431,4.396c3.991-0.132,7.991-0.06,11.986-0.022
		c2.6,0.024,3.878-1,3.831-3.795C275.917,486.134,275.945,478.268,275.909,470.402z"/>
	<path fill-rule="evenodd" clip-rule="evenodd" fill="#C76D36" d="M294.017,541.846c0.015-23.81,0.03-47.619,0.046-71.428
		c4.729-0.008,9.457-0.018,14.185-0.026c0.014,23.82,0.026,47.639,0.04,71.456C303.53,542.306,298.773,542.308,294.017,541.846z"/>
	<path fill-rule="evenodd" clip-rule="evenodd" fill="#FEFEFE" d="M275.909,470.402c0.036,7.865,0.008,15.731,0.142,23.596
		c0.047,2.795-1.231,3.819-3.831,3.795c-3.996-0.037-7.995-0.109-11.986,0.022c-3.175,0.104-4.501-1.107-4.431-4.396
		c0.163-7.614,0.067-15.233,0.077-22.85c3.391-0.105,6.781-0.213,10.171-0.318C269.336,470.302,272.623,470.353,275.909,470.402z"/>
	<path fill-rule="evenodd" clip-rule="evenodd" fill="#FEFEFE" d="M318.605,393.273c0.013,7.596-0.078,15.194,0.086,22.788
		c0.07,3.253-1.247,4.54-4.391,4.474c-3.982-0.086-7.97-0.032-11.955-0.023c-2.753,0.006-3.987-1.153-3.929-4.096
		c0.153-7.719,0.058-15.441,0.062-23.163C305.188,393.26,311.896,393.267,318.605,393.273z"/>
</g>
</svg>
