<?xml version="1.0" encoding="utf-8"?>
<!-- Generator: Adobe Illustrator 16.0.0, SVG Export Plug-In . SVG Version: 6.00 Build 0)  -->
<!DOCTYPE svg PUBLIC "-//W3C//DTD SVG 1.1//EN" "http://www.w3.org/Graphics/SVG/1.1/DTD/svg11.dtd">
<svg version="1.1" id="Capa_1" xmlns="http://www.w3.org/2000/svg" xmlns:xlink="http://www.w3.org/1999/xlink" x="0px" y="0px"
	 width="612px" height="792px" viewBox="0 0 612 792" enable-background="new 0 0 612 792" xml:space="preserve">
<g>
	<path fill-rule="evenodd" clip-rule="evenodd" d="M274.534,493.734c-1.488,0-2.84,0-4.191,0c-43.738,0-87.475,0.002-131.212-0.001
		c-13.178-0.002-20.333-7.172-20.333-20.373c-0.002-62.482-0.003-124.964,0-187.446c0-12.968,7.19-20.141,20.171-20.151
		c3.115-0.003,6.229-0.001,9.307-0.001c0.94-1.204,0.49-2.496,0.493-3.682c0.035-16.121,0.017-32.241,0.027-48.362
		c0.003-5.955,1.935-7.942,7.763-7.943c38.864-0.009,77.728-0.01,116.592,0.001c5.595,0.001,7.616,2.055,7.621,7.717
		c0.015,17.243,0.005,34.486,0.005,52c11.946,0,23.839,0,35.865,0c0-1.765,0-3.483,0-5.728c-3.465,0-7.031,0.027-10.597-0.007
		c-5.117-0.049-7.239-2.171-7.263-7.321c-0.033-7.123-0.035-14.246,0-21.369c0.025-5.141,2.148-7.248,7.283-7.294
		c3.47-0.031,6.94-0.006,10.706-0.006c0-1.742-0.015-3.206,0.003-4.668c0.059-5.159,2.141-7.306,7.259-7.32
		c11.746-0.032,23.494-0.117,35.238,0.05c3.845,0.055,7.37-0.883,10.943-1.989c22.845-7.075,45.696-14.128,68.549-21.175
		c6.82-2.104,9.983,0.24,9.99,7.37c0.008,9.105,0.002,18.209,0.002,27.739c2.236,0,4.314-0.05,6.391,0.009
		c9.761,0.276,17.525,8.153,17.595,17.814c0.07,9.848-7.71,17.867-17.64,18.151c-1.979,0.057-3.963,0.008-6.144,0.008
		c0,1.991,0,3.796,0,6.008c3.79,0,7.623-0.04,11.454,0.008c10.472,0.131,18.304,7.785,18.312,18.233
		c0.05,63.856,0.054,127.713-0.004,191.569c-0.01,10.681-8.014,18.146-19.149,18.151c-44.112,0.021-88.225,0.009-132.337,0.009
		c-1.354,0-2.709,0-4.262,0c0,5.994,0,11.797,0,17.996c8.446,0,16.897,0,25.349,0.001c3.373,0,6.75-0.08,10.121,0.026
		c4.091,0.13,6.271,2.449,6.307,6.748c0.063,7.373,0.052,14.746,0.006,22.118c-0.031,4.875-2.229,7.082-7.116,7.091
		c-18.62,0.03-37.239,0.013-55.859,0.013c-20.245,0-40.489,0.003-60.733-0.002c-6.407-0.002-8.254-1.841-8.262-8.207
		c-0.008-6.623-0.012-13.247,0.001-19.87c0.012-5.927,1.952-7.905,7.794-7.913c11.237-0.015,22.475-0.005,33.955-0.005
		C274.534,505.825,274.534,500.021,274.534,493.734z M148.792,277.762c-3.447,0-6.428-0.002-9.408,0.001
		c-6.884,0.006-8.586,1.715-8.587,8.644c-0.001,55.734-0.004,111.47,0.021,167.205c0,1.314-0.439,2.73,0.363,3.846
		c111.9,0,223.667,0,335.571,0c0-1.023,0-1.767,0-2.51c0-56.485,0-112.971-0.002-169.455c0-0.75,0.054-1.511-0.054-2.247
		c-0.448-3.094-2.24-5.166-5.333-5.374c-4.072-0.273-8.177-0.067-12.607-0.067c0,3.387,0.005,6.479-0.001,9.569
		c-0.015,7.217-3.137,9.6-9.895,7.519c-23.714-7.308-47.434-14.6-71.128-21.972c-3.155-0.981-6.259-1.517-9.754-0.889
		c-1.72,11.84-3.428,23.68-5.164,35.517c-0.639,4.359-2.612,6.143-6.948,6.194c-4.873,0.058-9.747,0.019-14.621,0.013
		c-6.681-0.007-8.468-1.771-8.473-8.387c-0.007-9.087-0.002-18.176-0.002-27.396c-14.14,0-27.929,0-41.994,0
		c0,9.431,0.012,18.653-0.004,27.876c-0.01,5.907-1.976,7.902-7.83,7.903c-38.74,0.01-77.479,0.009-116.219,0.001
		c-5.931-0.001-7.915-1.958-7.926-7.803C148.779,296.717,148.792,287.485,148.792,277.762z M160.898,301.535
		c36.119,0,71.894,0,107.654,0c0-28.002,0-55.781,0-83.544c-36,0-71.774,0-107.654,0
		C160.898,245.904,160.898,273.596,160.898,301.535z M130.96,469.865c-0.501,10.74,0.537,11.842,10.813,11.842
		c105.205,0,210.408,0,315.613-0.002c1.25,0,2.512,0.089,3.745-0.052c3.107-0.356,5.081-2.151,5.482-5.226
		c0.281-2.152,0.055-4.372,0.055-6.563C354.565,469.865,242.894,469.865,130.96,469.865z M370.866,261.336
		c22.021,6.79,43.783,13.5,65.63,20.236c0-26.643,0-53.003,0-79.612c-22.074,6.807-43.84,13.52-65.63,20.238
		C370.866,235.292,370.866,248.144,370.866,261.336z M244.914,535.507c36.087,0,71.852,0,107.61,0c0-3.993,0-7.787,0-11.555
		c-35.978,0-71.742,0-107.61,0C244.914,527.852,244.914,531.558,244.914,535.507z M358.504,259.631c0-12.151,0-23.931,0-35.598
		c-10.02,0-19.803,0-29.471,0c0,12.018,0,23.797,0,35.598C338.961,259.631,348.655,259.631,358.504,259.631z M286.982,493.906
		c0,6.138,0,11.836,0,17.587c7.992,0,15.776,0,23.517,0c0-6.029,0-11.817,0-17.587C302.53,493.906,294.834,493.906,286.982,493.906z
		 M334.992,271.892c0,10.151,0,19.93,0,29.696c2.303,0,4.378,0,6.581,0c1.428-9.941,2.835-19.73,4.267-29.696
		C342.064,271.892,338.619,271.892,334.992,271.892z M448.917,247.842c4.222-0.421,8.588,1.216,11.097-3.343
		c1.205-2.19,0.992-4.392-0.521-6.294c-2.925-3.676-6.866-2.251-10.575-2.27C448.917,240.009,448.917,243.7,448.917,247.842z
		 M316.598,247.627c0-4.118,0-7.817,0-11.653c-1.963,0-3.75,0-5.589,0c0,4.001,0,7.793,0,11.653
		C312.949,247.627,314.653,247.627,316.598,247.627z"/>
	<path fill-rule="evenodd" clip-rule="evenodd" fill="#377FE9" d="M148.792,277.762c0,9.724-0.013,18.956,0.005,28.188
		c0.011,5.846,1.995,7.802,7.926,7.803c38.74,0.008,77.479,0.009,116.219-0.001c5.854-0.001,7.82-1.996,7.83-7.903
		c0.016-9.223,0.004-18.445,0.004-27.876c14.064,0,27.854,0,41.994,0c0,9.221-0.005,18.309,0.002,27.396
		c0.005,6.615,1.792,8.38,8.473,8.387c4.874,0.006,9.748,0.045,14.621-0.013c4.336-0.051,6.31-1.834,6.948-6.194
		c1.736-11.837,3.444-23.677,5.164-35.517c3.495-0.628,6.599-0.093,9.754,0.889c23.694,7.372,47.414,14.664,71.128,21.972
		c6.758,2.081,9.88-0.302,9.895-7.519c0.006-3.091,0.001-6.183,0.001-9.569c4.431,0,8.535-0.206,12.607,0.067
		c3.093,0.208,4.885,2.279,5.333,5.374c0.107,0.736,0.054,1.497,0.054,2.247c0.002,56.484,0.002,112.97,0.002,169.455
		c0,0.743,0,1.486,0,2.51c-111.903,0-223.671,0-335.571,0c-0.802-1.115-0.362-2.531-0.363-3.846
		c-0.026-55.735-0.023-111.471-0.021-167.205c0-6.929,1.703-8.637,8.587-8.644C142.364,277.76,145.345,277.762,148.792,277.762z
		 M226.669,445.74c25.231,0,50.462,0.003,75.693-0.002c6.623-0.001,8.408-1.794,8.409-8.449c0.004-30.353,0.004-60.705,0-91.057
		c-0.001-6.682-1.773-8.478-8.375-8.479c-50.462-0.003-100.925-0.003-151.387,0.001c-6.378,0.001-8.213,1.846-8.214,8.255
		c-0.005,30.478-0.005,60.955,0,91.432c0.001,6.425,1.843,8.295,8.18,8.296C176.207,445.744,201.438,445.74,226.669,445.74z
		 M442.756,349.567c0-5.714,0.037-11.189-0.011-16.663c-0.043-4.924-2.192-7.134-7.074-7.137
		c-35.234-0.025-70.468-0.023-105.702-0.002c-4.959,0.003-7.177,2.154-7.183,7.019c-0.032,23.364-0.035,46.729,0.003,70.093
		c0.008,4.635,2.271,6.786,6.977,6.855c3.58,0.053,7.162,0.011,11.002,0.011c0,5.521-0.006,10.619,0.002,15.718
		c0.01,6.415,1.845,8.276,8.203,8.277c32.485,0.006,64.971,0.005,97.456,0.001c6.553-0.001,8.323-1.821,8.325-8.537
		c0.004-21.115,0.001-42.231,0.001-63.347C454.755,350.313,454.755,350.313,442.756,349.567z"/>
	<path fill-rule="evenodd" clip-rule="evenodd" fill="#77B8EA" d="M160.898,301.535c0-27.939,0-55.631,0-83.544
		c35.88,0,71.654,0,107.654,0c0,27.763,0,55.542,0,83.544C232.792,301.535,197.017,301.535,160.898,301.535z M196.787,259.766
		c0,5.615-0.048,11.23,0.013,16.845c0.065,6.041,4.14,8.71,9.493,6.082c11.507-5.649,22.942-11.444,34.416-17.162
		c2.412-1.202,4.043-2.946,4.043-5.769c0.001-2.83-1.655-4.57-4.054-5.768c-11.47-5.725-22.909-11.514-34.415-17.166
		c-5.347-2.626-9.42,0.048-9.483,6.093C196.741,248.535,196.787,254.151,196.787,259.766z"/>
	<path fill-rule="evenodd" clip-rule="evenodd" fill="#FEFEFE" d="M130.96,469.865c111.934,0,223.605,0,335.709,0
		c0,2.19,0.227,4.41-0.055,6.563c-0.401,3.074-2.375,4.869-5.482,5.226c-1.233,0.141-2.495,0.052-3.745,0.052
		c-105.205,0.002-210.409,0.002-315.613,0.002C131.497,481.707,130.458,480.605,130.96,469.865z"/>
	<path fill-rule="evenodd" clip-rule="evenodd" fill="#F4CB4E" d="M370.866,261.336c0-13.193,0-26.044,0-39.138
		c21.79-6.719,43.556-13.432,65.63-20.238c0,26.609,0,52.97,0,79.612C414.649,274.836,392.888,268.126,370.866,261.336z"/>
	<path fill-rule="evenodd" clip-rule="evenodd" fill="#FEFEFE" d="M244.914,535.507c0-3.949,0-7.655,0-11.555
		c35.869,0,71.633,0,107.61,0c0,3.768,0,7.562,0,11.555C316.766,535.507,281.001,535.507,244.914,535.507z"/>
	<path fill-rule="evenodd" clip-rule="evenodd" fill="#FEFEFE" d="M358.504,259.631c-9.849,0-19.543,0-29.471,0
		c0-11.801,0-23.581,0-35.598c9.668,0,19.451,0,29.471,0C358.504,235.7,358.504,247.48,358.504,259.631z"/>
	<path fill-rule="evenodd" clip-rule="evenodd" fill="#8D94A2" d="M286.982,493.906c7.852,0,15.547,0,23.517,0
		c0,5.77,0,11.558,0,17.587c-7.74,0-15.524,0-23.517,0C286.982,505.742,286.982,500.044,286.982,493.906z"/>
	<path fill-rule="evenodd" clip-rule="evenodd" fill="#C4BBC2" d="M334.992,271.892c3.627,0,7.072,0,10.848,0
		c-1.432,9.965-2.839,19.754-4.267,29.696c-2.203,0-4.278,0-6.581,0C334.992,291.822,334.992,282.043,334.992,271.892z"/>
	<path fill-rule="evenodd" clip-rule="evenodd" fill="#EB455A" d="M448.917,247.842c0-4.143,0-7.833,0-11.907
		c3.709,0.018,7.65-1.407,10.575,2.27c1.514,1.902,1.727,4.104,0.521,6.294C457.505,249.059,453.139,247.421,448.917,247.842z"/>
	<path fill-rule="evenodd" clip-rule="evenodd" fill="#EB455A" d="M316.598,247.627c-1.944,0-3.648,0-5.589,0
		c0-3.86,0-7.651,0-11.653c1.839,0,3.626,0,5.589,0C316.598,239.81,316.598,243.509,316.598,247.627z"/>
	<path fill-rule="evenodd" clip-rule="evenodd" d="M226.669,445.74c-25.231,0-50.462,0.004-75.694-0.003
		c-6.336-0.001-8.179-1.871-8.18-8.296c-0.005-30.477-0.005-60.954,0-91.432c0.001-6.409,1.836-8.254,8.214-8.255
		c50.462-0.004,100.925-0.004,151.387-0.001c6.601,0.001,8.374,1.797,8.375,8.479c0.004,30.352,0.004,60.704,0,91.057
		c-0.001,6.655-1.786,8.448-8.409,8.449C277.131,445.743,251.9,445.74,226.669,445.74z M298.575,433.599c0-26.333,0-52.368,0-78.834
		c-1.584,0.927-2.852,1.637-4.089,2.398C273.644,369.977,252.771,382.74,232,395.67c-3.634,2.262-6.583,2.374-10.303,0.05
		c-20.96-13.094-42.049-25.982-63.119-38.899c-1.097-0.672-2.049-1.861-3.593-1.612c0,26.126,0,52.188,0,78.391
		C202.878,433.599,250.578,433.599,298.575,433.599z M170.263,349.906c18.765,11.543,36.721,22.539,54.601,33.659
		c1.98,1.231,3.185,0.386,4.692-0.546c11.352-7.014,22.722-14,34.086-20.996c6.306-3.881,12.612-7.763,19.687-12.117
		C245.333,349.906,208.308,349.906,170.263,349.906z"/>
	<path fill-rule="evenodd" clip-rule="evenodd" d="M442.756,349.567c11.999,0.746,11.999,0.746,11.999,12.289
		c0,21.115,0.003,42.231-0.001,63.347c-0.002,6.716-1.772,8.536-8.325,8.537c-32.485,0.004-64.971,0.005-97.456-0.001
		c-6.358-0.001-8.193-1.862-8.203-8.277c-0.008-5.099-0.002-10.197-0.002-15.718c-3.84,0-7.422,0.042-11.002-0.011
		c-4.705-0.069-6.969-2.221-6.977-6.855c-0.038-23.364-0.035-46.729-0.003-70.093c0.006-4.865,2.224-7.016,7.183-7.019
		c35.234-0.021,70.468-0.023,105.702,0.002c4.882,0.003,7.031,2.212,7.074,7.137C442.793,338.378,442.756,343.853,442.756,349.567z
		 M442.593,362.01c-30.072,0-59.854,0-89.532,0c0,20.044,0,39.829,0,59.54c29.986,0,59.679,0,89.532,0
		C442.593,401.663,442.593,381.967,442.593,362.01z M335.063,337.961c0,20.054,0,39.826,0,59.627c2,0.114,3.718,0.467,5.704-0.347
		c0-1.314,0-2.662,0-4.01c0-11.739-0.004-23.478,0.002-35.217c0.003-6.437,1.805-8.261,8.184-8.262
		c25.727-0.004,51.452,0.006,77.178-0.022c1.447-0.002,2.979,0.413,4.428-0.488c0-3.699,0-7.388,0-11.28
		C398.694,337.961,367.025,337.961,335.063,337.961z"/>
	<path fill-rule="evenodd" clip-rule="evenodd" d="M196.787,259.766c0-5.615-0.046-11.23,0.012-16.845
		c0.063-6.045,4.136-8.719,9.483-6.093c11.506,5.652,22.945,11.441,34.415,17.166c2.399,1.198,4.055,2.938,4.054,5.768
		c0,2.823-1.632,4.567-4.043,5.769c-11.473,5.718-22.909,11.513-34.416,17.162c-5.353,2.628-9.428-0.041-9.493-6.082
		C196.739,270.996,196.787,265.38,196.787,259.766z M208.871,268.02c5.558-2.801,10.666-5.375,16.422-8.277
		c-5.871-2.931-11.007-5.495-16.422-8.199C208.871,257.16,208.871,262.242,208.871,268.02z"/>
	<path fill-rule="evenodd" clip-rule="evenodd" fill="#886EF6" d="M298.575,433.599c-47.997,0-95.697,0-143.59,0
		c0-26.203,0-52.264,0-78.391c1.544-0.249,2.497,0.94,3.593,1.612c21.07,12.917,42.159,25.805,63.119,38.899
		c3.72,2.324,6.668,2.212,10.303-0.05c20.771-12.93,41.644-25.693,62.486-38.508c1.237-0.761,2.504-1.471,4.089-2.398
		C298.575,381.23,298.575,407.266,298.575,433.599z"/>
	<path fill-rule="evenodd" clip-rule="evenodd" fill="#B7AFEF" d="M170.263,349.906c38.045,0,75.07,0,113.066,0
		c-7.075,4.354-13.381,8.236-19.687,12.117c-11.364,6.995-22.734,13.981-34.086,20.996c-1.507,0.932-2.712,1.777-4.692,0.546
		C206.984,372.445,189.028,361.449,170.263,349.906z"/>
	<path fill-rule="evenodd" clip-rule="evenodd" fill="#EB455A" d="M442.593,362.01c0,19.958,0,39.653,0,59.54
		c-29.854,0-59.546,0-89.532,0c0-19.711,0-39.496,0-59.54C382.739,362.01,412.521,362.01,442.593,362.01z M430.597,374.006
		c-14.082,0-27.864,0-41.54,0c0,4.057,0,7.85,0,11.55c13.991,0,27.687,0,41.54,0C430.597,381.666,430.597,377.965,430.597,374.006z
		 M400.891,409.452c10.185,0,19.97,0,29.671,0c0-3.997,0-7.699,0-11.48c-9.982,0-19.766,0-29.671,0
		C400.891,401.898,400.891,405.599,400.891,409.452z M364.948,397.893c0,4.117,0,7.818,0,11.639c7.969,0,15.754,0,23.565,0
		c0-4.007,0-7.795,0-11.639C380.567,397.893,372.872,397.893,364.948,397.893z M376.601,374.002c-4.07,0-7.856,0-11.548,0
		c0,4.05,0,7.841,0,11.558c3.99,0,7.689,0,11.548,0C376.601,381.676,376.601,377.977,376.601,374.002z"/>
	<path fill-rule="evenodd" clip-rule="evenodd" fill="#9D2849" d="M335.063,337.961c31.962,0,63.631,0,95.495,0
		c0,3.892,0,7.581,0,11.28c-1.449,0.901-2.98,0.486-4.428,0.488c-25.726,0.028-51.451,0.018-77.178,0.022
		c-6.379,0.001-8.181,1.825-8.184,8.262c-0.006,11.739-0.002,23.479-0.002,35.217c0,1.348,0,2.696,0,4.01
		c-1.986,0.813-3.704,0.461-5.704,0.347C335.063,377.787,335.063,358.016,335.063,337.961z"/>
	<path fill-rule="evenodd" clip-rule="evenodd" fill="#EB455A" d="M208.871,268.02c0-5.777,0-10.86,0-16.476
		c5.415,2.704,10.552,5.269,16.422,8.199C219.537,262.644,214.428,265.218,208.871,268.02z"/>
	<path fill-rule="evenodd" clip-rule="evenodd" d="M430.597,374.006c0,3.959,0,7.66,0,11.55c-13.854,0-27.549,0-41.54,0
		c0-3.7,0-7.494,0-11.55C402.732,374.006,416.515,374.006,430.597,374.006z"/>
	<path fill-rule="evenodd" clip-rule="evenodd" d="M400.891,409.452c0-3.854,0-7.554,0-11.48c9.905,0,19.688,0,29.671,0
		c0,3.781,0,7.483,0,11.48C420.86,409.452,411.075,409.452,400.891,409.452z"/>
	<path fill-rule="evenodd" clip-rule="evenodd" d="M364.948,397.893c7.924,0,15.619,0,23.565,0c0,3.844,0,7.632,0,11.639
		c-7.812,0-15.597,0-23.565,0C364.948,405.711,364.948,402.01,364.948,397.893z"/>
	<path fill-rule="evenodd" clip-rule="evenodd" d="M376.601,374.002c0,3.974,0,7.674,0,11.558c-3.858,0-7.558,0-11.548,0
		c0-3.717,0-7.507,0-11.558C368.744,374.002,372.53,374.002,376.601,374.002z"/>
</g>
</svg>
