<?xml version="1.0" encoding="utf-8"?>
<!-- Generator: Adobe Illustrator 16.0.0, SVG Export Plug-In . SVG Version: 6.00 Build 0)  -->
<!DOCTYPE svg PUBLIC "-//W3C//DTD SVG 1.1//EN" "http://www.w3.org/Graphics/SVG/1.1/DTD/svg11.dtd">
<svg version="1.1" id="Capa_1" xmlns="http://www.w3.org/2000/svg" xmlns:xlink="http://www.w3.org/1999/xlink" x="0px" y="0px"
	 width="612px" height="792px" viewBox="0 0 612 792" enable-background="new 0 0 612 792" xml:space="preserve">
<g>
	<path fill-rule="evenodd" clip-rule="evenodd" fill="#3374B9" d="M160.459,369.786c0.154-2.469-0.541-5.013,0.566-7.396
		c2.07-4.454,5.575-6.306,10.49-6.287c23.104,0.091,46.208,0.042,69.312,0.036c1.623,0,3.245-0.052,4.866-0.08
		c3.083,4.285,6.55,8.25,10.132,12.12c-4.744-0.129-9.525-0.029-14.133,0.979c-28.14,6.15-47.083,22.764-56.048,50.26
		c-1.981,6.075-3.46,12.409-2.38,18.89c1.809,0.778,3.45,0.458,5.043,0.459c90.208,0.018,180.415,0.017,270.623,0.01
		c1.622,0,3.244-0.09,4.866-0.138c2.159,13.289,4.358,26.571,6.468,39.868c2.953,18.612,5.844,37.233,8.746,55.853
		c0.25,1.604,0.489,3.222,0.547,4.838c0.2,5.691-3.761,10.104-9.43,10.539c-1.368,0.105-2.749,0.036-4.124,0.036
		c-89.366,0.015-178.732,0.029-268.098,0.046c-5.45,0.001-8.577-2.45-10.484-8.246c-1.959-12.402-3.952-24.801-5.871-37.209
		c-2.623-16.961-5.169-33.933-7.787-50.894c-2.885-18.693-5.756-37.391-8.746-56.068
		C163.543,388.189,162.537,378.898,160.459,369.786z M444.327,480.769c-0.598-5.938-0.598-5.938-6.373-5.938
		c-45.474,0-90.946-0.004-136.419,0.018c-1.463,0.001-2.99-0.363-4.64,0.507c0.136,1.404,0.205,2.887,0.435,4.344
		c2.13,13.517,4.336,27.021,6.413,40.547c0.798,5.2,0.744,5.269,6.091,4.224c0.373,0.029,0.746,0.087,1.118,0.087
		c45.676,0.006,91.353,0.01,137.028-0.002c0.966,0,2.02,0.258,3.141-0.896C448.884,509.537,446.605,495.153,444.327,480.769z"/>
	<path fill-rule="evenodd" clip-rule="evenodd" fill="#579FD6" d="M463.797,438.639c-1.622,0.048-3.244,0.138-4.866,0.138
		c-90.208,0.007-180.415,0.008-270.623-0.01c-1.593-0.001-3.234,0.319-5.043-0.459c-1.081-6.48,0.399-12.814,2.38-18.89
		c8.964-27.496,27.908-44.11,56.048-50.26c4.608-1.007,9.389-1.107,14.133-0.978c0.905,0.614,1.81,1.227,2.715,1.841l0.024-0.121
		c0.292,0.314,0.584,0.628,0.876,0.942c18.567,15.302,39.665,20.104,63.046,14.968c12.6-2.767,23.294-9.258,32.934-17.638
		c32.489,0.015,64.978,0.029,97.466,0.043C456.715,391.661,460.563,415.103,463.797,438.639z"/>
	<path fill-rule="evenodd" clip-rule="evenodd" fill="#F8BE2D" d="M355.421,368.173c-9.64,8.379-20.334,14.871-32.934,17.638
		c-23.381,5.135-44.479,0.333-63.046-14.969c-0.08-0.513-0.347-0.848-0.876-0.941c0,0-0.024,0.121-0.022,0.119
		c0.396-1.896-1.161-2.93-1.965-4.249c-10.061-16.506-13.046-34.263-9.123-53.108c3.302-15.858,11.256-29.01,23.591-39.618
		c12.477-10.73,27.013-16.303,43.218-17.187c14.499-0.79,28.109,2.813,40.629,10.365c1.402,0.845,2.62,2.449,4.626,2.065
		c0,0-0.112,0.031-0.112,0.032c0.267,0.284,0.534,0.566,0.803,0.849c0,0-0.105-0.063-0.105-0.062
		c0.306,0.278,0.61,0.557,0.915,0.834c9.537,11.171,14.796,24.163,16.266,38.703c1.735,17.177-2.542,32.914-11.694,47.427
		C362.202,360.104,358.812,364.139,355.421,368.173z M317.414,333.863c-0.004,6.495-4.614,11.477-11.007,11.896
		c-6.176,0.403-11.668-4.209-12.472-10.453c-0.126-0.984-0.258-1.983-0.543-2.929c-0.954-3.176-3.21-4.905-6.44-4.458
		c-3.155,0.438-5.025,2.423-5.066,5.913c-0.112,9.595,4.318,16.69,12.594,20.899c3.79,1.927,5.174,3.817,5.096,8.038
		c-0.11,5.978,5.197,9.139,9.512,6.128c2.538-1.77,2.977-4.598,2.75-7.373c-0.256-3.148,0.666-4.749,3.814-6.114
		c11.32-4.908,16.655-17.675,12.728-29.343c-3.256-9.673-11.764-15.746-22.833-16.299c-5.099-0.255-9.363-3.236-10.976-7.674
		c-1.776-4.887-0.544-9.729,3.38-13.282c3.617-3.275,8.452-3.976,12.874-1.763c4.735,2.369,6.388,6.591,7.112,11.546
		c0.519,3.544,3.532,5.62,6.609,5.107c3.05-0.508,5.504-3.594,5.209-6.802c-0.735-8.012-3.858-14.979-11.036-18.923
		c-4.59-2.523-8.091-4.839-7.061-10.706c0.115-0.658-0.263-1.498-0.629-2.127c-1.349-2.322-3.232-3.79-6.116-3.39
		c-2.651,0.368-4.29,1.947-4.898,4.466c-0.376,1.56-0.662,3.225-0.53,4.805c0.224,2.679-0.825,3.957-3.323,4.968
		c-11.034,4.467-16.919,17.042-13.52,28.405c3.117,10.416,11.702,16.982,22.716,17.375
		C312.53,322.029,317.418,326.932,317.414,333.863z"/>
	<path fill-rule="evenodd" clip-rule="evenodd" fill="#BCBCBD" d="M160.459,369.786c2.078,9.113,3.084,18.404,4.559,27.616
		c2.99,18.678,5.861,37.375,8.746,56.068c2.618,16.961,5.164,33.933,7.787,50.894c1.919,12.408,3.911,24.807,5.871,37.209
		c-13.342,0.255-26.684,0.563-40.026,0.748c-9.853,0.137-14.757-5.744-13.182-15.483c3.557-21.989,6.982-44.001,10.626-65.976
		c4.335-26.146,8.86-52.261,13.261-78.396C158.816,378.224,158.657,373.825,160.459,369.786z"/>
	<path fill-rule="evenodd" clip-rule="evenodd" fill="#F9A529" d="M359.519,268.288c-2.006,0.383-3.224-1.22-4.626-2.065
		c-12.52-7.552-26.13-11.155-40.629-10.365c-16.205,0.884-30.741,6.457-43.218,17.187c-12.335,10.608-20.289,23.76-23.591,39.618
		c-3.924,18.846-0.938,36.602,9.123,53.108c0.804,1.319,2.361,2.353,1.965,4.249c-0.906-0.613-1.811-1.226-2.716-1.84
		c-3.583-3.87-7.049-7.835-10.132-12.12c-7.407-11.436-11.736-23.951-12.16-37.566c-0.547-17.557,4.43-33.544,15.514-47.276
		c16.041-19.875,37.117-29.036,62.488-27.279c18.659,1.292,34.437,9.359,47.229,23.09
		C359.09,267.379,359.271,267.865,359.519,268.288z"/>
	<path fill-rule="evenodd" clip-rule="evenodd" fill="#3374B9" d="M355.421,368.173c3.391-4.034,6.781-8.069,10.169-12.103
		c25.049,0.025,50.099,0.041,75.149,0.079c5.928,0.009,9.739,2.099,11.14,6.318c0.606,1.826,0.688,3.827,1.008,5.75
		C420.398,368.202,387.91,368.188,355.421,368.173z"/>
	<path fill-rule="evenodd" clip-rule="evenodd" fill="#F9A529" d="M360.209,269.168c-0.269-0.282-0.536-0.565-0.803-0.849
		C359.92,268.369,360.14,268.697,360.209,269.168z"/>
	<path fill-rule="evenodd" clip-rule="evenodd" fill="#F9A529" d="M361.019,269.941c-0.305-0.277-0.609-0.556-0.915-0.834
		C360.409,269.384,360.714,269.663,361.019,269.941z"/>
	<path fill-rule="evenodd" clip-rule="evenodd" fill="#F9A529" d="M444.327,480.769c2.278,14.385,4.557,28.769,6.793,42.89
		c-1.121,1.153-2.175,0.896-3.141,0.896c-45.676,0.012-91.353,0.008-137.028,0.002c-0.372,0-0.745-0.058-1.118-0.087
		c-0.673-1.243-0.779-2.578-0.824-3.975c-0.696-21.839,16.944-39.696,39.113-39.702C380.19,480.784,412.259,480.777,444.327,480.769
		z"/>
	<path fill-rule="evenodd" clip-rule="evenodd" fill="#F48C20" d="M444.327,480.769c-32.068,0.009-64.137,0.016-96.205,0.023
		c-22.169,0.006-39.81,17.863-39.113,39.702c0.045,1.396,0.151,2.731,0.824,3.975c-5.347,1.045-5.293,0.977-6.091-4.224
		c-2.077-13.525-4.283-27.03-6.413-40.547c-0.229-1.457-0.298-2.939-0.435-4.344c1.65-0.87,3.177-0.506,4.64-0.507
		c45.473-0.021,90.945-0.018,136.419-0.018C443.729,474.83,443.729,474.83,444.327,480.769z"/>
	<path fill-rule="evenodd" clip-rule="evenodd" fill="#F9A529" d="M258.565,369.9c0.529,0.093,0.797,0.429,0.876,0.941
		C259.149,370.528,258.857,370.215,258.565,369.9z"/>
	<path fill-rule="evenodd" clip-rule="evenodd" fill="#FEDFAF" d="M317.414,333.863c0.004-6.931-4.884-11.833-12.055-12.089
		c-11.015-0.393-19.6-6.959-22.716-17.375c-3.4-11.363,2.485-23.938,13.52-28.405c2.498-1.012,3.547-2.289,3.323-4.968
		c-0.132-1.58,0.154-3.246,0.53-4.805c0.608-2.519,2.247-4.098,4.898-4.466c2.883-0.4,4.767,1.067,6.116,3.39
		c0.366,0.63,0.744,1.47,0.629,2.127c-1.03,5.867,2.471,8.182,7.061,10.706c7.178,3.945,10.301,10.912,11.036,18.923
		c0.295,3.208-2.159,6.294-5.209,6.802c-3.077,0.513-6.091-1.563-6.609-5.107c-0.725-4.956-2.377-9.177-7.112-11.546
		c-4.422-2.213-9.256-1.513-12.874,1.763c-3.924,3.553-5.156,8.396-3.38,13.282c1.613,4.438,5.877,7.419,10.976,7.674
		c11.069,0.554,19.577,6.626,22.833,16.299c3.928,11.668-1.407,24.435-12.728,29.343c-3.148,1.365-4.07,2.965-3.814,6.114
		c0.227,2.775-0.212,5.603-2.75,7.373c-4.315,3.011-9.622-0.15-9.512-6.128c0.078-4.221-1.306-6.111-5.096-8.038
		c-8.276-4.209-12.706-11.304-12.594-20.899c0.041-3.49,1.912-5.476,5.066-5.913c3.23-0.448,5.486,1.281,6.44,4.458
		c0.285,0.946,0.417,1.945,0.543,2.929c0.804,6.243,6.296,10.856,12.472,10.453C312.8,345.34,317.41,340.357,317.414,333.863z"/>
</g>
</svg>
