<?xml version="1.0" encoding="utf-8"?>
<!-- Generator: Adobe Illustrator 16.0.0, SVG Export Plug-In . SVG Version: 6.00 Build 0)  -->
<!DOCTYPE svg PUBLIC "-//W3C//DTD SVG 1.1//EN" "http://www.w3.org/Graphics/SVG/1.1/DTD/svg11.dtd">
<svg version="1.1" id="Capa_1" xmlns="http://www.w3.org/2000/svg" xmlns:xlink="http://www.w3.org/1999/xlink" x="0px" y="0px"
	 width="612px" height="792px" viewBox="0 0 612 792" enable-background="new 0 0 612 792" xml:space="preserve">
<g>
	<path fill-rule="evenodd" clip-rule="evenodd" fill="#2980B9" d="M114.75,548.957c0-4.499,0-8.999,0-13.498
		c0.505-1.535,1.064-3.055,1.508-4.606c5.076-17.742,16.541-28.978,34.39-33.594c7.458-1.929,15.121-1.538,22.734-1.512
		c2.389,0.009,4.708-0.102,6.906-1.288c5.352-2.891,7.239-7.485,7.232-13.349c-0.052-46.73-0.037-93.459-0.023-140.189
		c0.004-14.493,0.07-28.986,0.107-43.479c58.049,0.015,116.099,0.029,174.148,0.05c1.871,0.001,3.742,0.07,5.613,0.107
		c-1.095,1.183-2.159,2.397-3.291,3.545c-7.505,7.615-15.025,15.217-22.54,22.823c-3.307,2.646-4.912,6.257-5.543,10.294
		c-0.636,4.07-1.161,8.169-1.455,12.276c-0.408,5.686-2.213,11.337-0.582,17.094c-38.615,0.013-77.231,0.026-115.846,0.04
		c-1.25,0-2.501-0.037-3.749,0.016c-4.144,0.175-6.756,2.646-6.824,6.414c-0.069,3.764,2.404,6.477,6.553,6.701
		c4.113,0.223,8.246,0.028,12.368,0.122c2.427,0.056,4.918-0.398,7.485,0.458c0,1.7,0,3.186,0,4.671
		c0,56.612,0,113.224,0.001,169.836c0,1.249-0.046,2.503,0.032,3.748c0.237,3.778,2.869,6.472,6.37,6.583
		c3.447,0.109,6.264-2.463,6.709-6.241c0.159-1.358,0.118-2.744,0.118-4.117c0.006-28.118-0.003-56.236,0.025-84.355
		c0.001-1.442-0.421-2.988,0.598-4.409c23.928,0,47.859,0,71.952,0c0,17.651,0,35.061,0,52.806c-1.628,0-2.981,0-4.335,0
		c-12.622,0-25.244,0-37.866,0.001c-0.875,0-1.75-0.01-2.625,0.003c-4.873,0.075-7.893,2.595-7.898,6.582
		c-0.005,3.998,2.964,6.618,7.876,6.622c43.49,0.031,86.98,0.062,130.47-0.019c8.628-0.016,13.855-5.567,13.862-14.27
		c0.025-32.243,0.017-64.485,0.004-96.729c-0.002-5.098-2.271-7.901-6.372-8.013c-4.269-0.116-6.826,2.757-6.861,7.963
		c-0.062,9.122-0.002,18.246-0.039,27.368c-0.005,1.334,0.367,2.755-0.509,3.963c-52.683,0-105.325,0-157.998,0
		c0-24.263,0-48.184,0-72.472c7.37,0,14.468,0,21.565,0c24.37,0,48.739,0.012,73.108-0.009c6.243-0.005,8.324-1.722,8.877-7.111
		c5.813-0.749,11.629-1.47,17.438-2.255c4.315-0.584,8.192-2.092,11.044-5.595c1.017-0.909,2.078-1.771,3.041-2.732
		c11.836-11.809,23.639-23.65,35.488-35.445c8.839-8.798,17.736-17.54,26.607-26.307c12.337,0.013,24.686,0.356,37.007-0.077
		c8.191-0.288,13.933,2.431,17.073,10.116c0,89.988,0,179.978,0,269.966c-1.457,6.042-5.223,9.775-11.249,11.249
		c-110.986,0-221.972,0-332.958,0c-0.888-1.301-2.399-1.099-3.649-1.439c-16.744-4.579-27.918-15.106-33.82-31.381
		C116.195,553.591,116.3,551.001,114.75,548.957z"/>
	<path fill-rule="evenodd" clip-rule="evenodd" fill="#3B96D2" d="M176.992,204.75c7.801,2.7,10.712,8.211,10.636,16.379
		c-0.237,25.435-0.047,50.875-0.023,76.313c-0.037,14.493-0.103,28.986-0.107,43.479c-0.014,46.73-0.029,93.459,0.023,140.189
		c0.007,5.863-1.88,10.458-7.232,13.349c-2.198,1.187-4.518,1.297-6.906,1.288c-7.613-0.026-15.276-0.417-22.734,1.512
		c-17.849,4.616-29.313,15.852-34.39,33.594c-0.444,1.552-1.003,3.071-1.508,4.606c0-97.238,0-194.476,0-291.714
		c1.272-1.084,1.042-2.719,1.418-4.101c3.228-11.849,9.981-21.078,20.271-27.767c5.979-3.887,12.687-5.714,19.555-7.127
		C162.994,204.75,169.993,204.75,176.992,204.75z"/>
	<path fill-rule="evenodd" clip-rule="evenodd" fill="#FE5565" d="M442.206,223.411c6.457-6.633,12.046-14.222,20.501-18.661
		c2,0,3.999,0,5.999,0c3.718,1.3,6.672,3.644,9.383,6.466c4.559,4.748,9.227,9.394,13.958,13.969
		c2.866,2.77,5.383,5.714,6.655,9.561c0,2,0,4,0,6c-4.406,8.446-11.998,14.004-18.575,20.482
		C467.486,248.623,454.846,236.017,442.206,223.411z"/>
	<path fill-rule="evenodd" clip-rule="evenodd" fill="#FDFEFE" d="M351.004,369.783c-0.553,5.389-2.634,7.105-8.877,7.11
		c-24.369,0.021-48.738,0.009-73.108,0.009c-7.097,0-14.195,0-21.565,0c0,24.288,0,48.209,0,72.472c52.673,0,105.315,0,157.998,0
		c0.876-1.208,0.504-2.629,0.509-3.963c0.037-9.122-0.022-18.246,0.039-27.368c0.035-5.206,2.593-8.079,6.861-7.963
		c4.101,0.111,6.37,2.915,6.372,8.013c0.013,32.243,0.021,64.485-0.004,96.729c-0.007,8.702-5.234,14.254-13.862,14.27
		c-43.489,0.08-86.979,0.05-130.47,0.019c-4.912-0.004-7.881-2.624-7.876-6.622c0.005-3.987,3.026-6.507,7.898-6.582
		c0.875-0.013,1.75-0.003,2.625-0.003c12.622-0.001,25.244-0.001,37.866-0.001c1.354,0,2.707,0,4.335,0c0-17.745,0-35.154,0-52.806
		c-24.093,0-48.024,0-71.952,0c-1.019,1.421-0.596,2.967-0.598,4.409c-0.028,28.119-0.019,56.237-0.025,84.355
		c0,1.373,0.041,2.759-0.118,4.117c-0.445,3.778-3.262,6.351-6.709,6.241c-3.501-0.111-6.133-2.805-6.37-6.583
		c-0.079-1.245-0.032-2.499-0.032-3.748c-0.001-56.612-0.001-113.224-0.001-169.836c0-1.485,0-2.971,0-4.671
		c-2.567-0.856-5.058-0.402-7.485-0.458c-4.122-0.094-8.255,0.101-12.368-0.122c-4.149-0.224-6.622-2.937-6.553-6.701
		c0.068-3.768,2.681-6.239,6.824-6.414c1.248-0.053,2.5-0.016,3.749-0.016c38.615-0.014,77.231-0.026,115.844-0.04
		c3.041,4.457,6.909,7.257,12.653,6.448C348.058,369.876,349.536,369.876,351.004,369.783z M405.776,463.112
		c-24.422,0-48.336,0-72.37,0c0,17.664,0,35.069,0,52.489c24.283,0,48.3,0,72.37,0C405.776,497.977,405.776,480.654,405.776,463.112
		z"/>
	<path fill-rule="evenodd" clip-rule="evenodd" fill="#F1D45B" d="M461.001,280.51c-5.46,5.646-10.919,11.292-16.379,16.938
		c-8.871,8.767-17.769,17.509-26.607,26.307c-11.85,11.794-23.652,23.636-35.488,35.445c-0.963,0.961-2.024,1.824-3.042,2.733
		c-12.65-12.655-25.3-25.31-37.949-37.966c7.515-7.606,15.035-15.208,22.54-22.823c1.132-1.148,2.196-2.363,3.291-3.545
		c6.215-6.117,12.458-12.205,18.639-18.357c11.304-11.253,22.563-22.554,33.867-33.81c1.035-1.03,1.846-2.4,3.456-2.724
		C435.887,255.309,448.443,267.909,461.001,280.51z"/>
	<path fill-rule="evenodd" clip-rule="evenodd" fill="#F7E8AF" d="M341.535,323.967c12.649,12.656,25.299,25.311,37.949,37.966
		c-2.851,3.502-6.728,5.01-11.043,5.594c-5.809,0.785-11.625,1.506-17.438,2.255c-1.468,0.094-2.946,0.094-4.397,0.298
		c-5.744,0.809-9.612-1.992-12.653-6.448c-1.629-5.757,0.176-11.408,0.584-17.094c0.294-4.107,0.819-8.207,1.455-12.276
		C336.623,330.225,338.229,326.613,341.535,323.967z"/>
	<path fill-rule="evenodd" clip-rule="evenodd" fill="#BDC2C6" d="M461.001,280.51c-12.558-12.601-25.114-25.201-37.673-37.802
		c5.773-6.939,12.494-12.953,18.878-19.296c12.64,12.604,25.28,25.21,37.921,37.816C474.243,268.142,467.728,274.431,461.001,280.51
		z"/>
	<path fill-rule="evenodd" clip-rule="evenodd" fill="#2980B9" d="M405.776,463.112c0,17.542,0,34.864,0,52.489
		c-24.07,0-48.087,0-72.37,0c0-17.42,0-34.825,0-52.489C357.44,463.112,381.354,463.112,405.776,463.112z"/>
</g>
</svg>
