<?xml version="1.0" encoding="utf-8"?>
<!-- Generator: Adobe Illustrator 16.0.0, SVG Export Plug-In . SVG Version: 6.00 Build 0)  -->
<!DOCTYPE svg PUBLIC "-//W3C//DTD SVG 1.1//EN" "http://www.w3.org/Graphics/SVG/1.1/DTD/svg11.dtd">
<svg version="1.1" id="Capa_1" xmlns="http://www.w3.org/2000/svg" xmlns:xlink="http://www.w3.org/1999/xlink" x="0px" y="0px"
	 width="612px" height="792px" viewBox="0 0 612 792" enable-background="new 0 0 612 792" xml:space="preserve">
<g>
	<path fill-rule="evenodd" clip-rule="evenodd" fill="#66CBFE" d="M114.75,261.743c28.478,0,56.957,0.038,85.435-0.06
		c2.853-0.009,4.065,0.689,4.709,3.679c4.301,19.967,8.839,39.883,13.308,59.814c0.272,1.213,0.606,2.413,0.902,3.58
		c1.492,0.835,3.019,0.458,4.476,0.46c33.974,0.024,67.948,0.017,101.922,0.023c1.496,0,2.993,0.075,4.49,0.115
		c-0.001,7.419-0.001,14.839-0.001,22.259c-8.943,0-17.887,0-27.182,0c1.307,15.436,2.553,30.153,3.829,45.232
		c8.147,0,15.75,0,23.353,0c0,7.42,0,14.84,0,22.26c-7.087,0-14.173,0-21.521,0c1.269,15.277,2.493,30.001,3.759,45.231
		c6.091,0,11.927,0,17.763,0c0,7.42,0,14.84,0.001,22.26c-17.48,0.04-34.96,0.097-52.439,0.114
		c-19.604,0.021-39.209-0.004-58.813,0.011c-7.215,0.006-12.427,4.67-12.494,11.113c-0.069,6.611,5.18,11.347,12.614,11.377
		c12.858,0.051,25.716,0.099,38.573,0.147c-12.899,2.771-21.966,10.153-26.986,22.409c-6.963-0.379-13.993,0.655-20.897-1.051
		c-15.446-3.816-25.969-17.45-25.797-33.475c0.167-15.435,11.309-28.77,26.824-32.31c4.922-1.122,9.931-0.363,15.275-0.911
		c-1.133-5.345-2.168-10.434-3.295-15.503c-11.949-53.771-23.93-107.533-35.814-161.318c-0.569-2.573-1.814-3.009-4.127-3.001
		c-22.622,0.068-45.243,0.041-67.865,0.041C114.75,276.741,114.75,269.242,114.75,261.743z M234.04,396.515
		c16.852,0,33.27,0,49.917,0c-1.24-14.94-2.461-29.652-3.698-44.545c-18.77,0-37.27,0-56.13,0
		C227.48,367.033,230.764,381.793,234.04,396.515z M239.142,419.383c3.183,14.573,6.271,28.657,9.32,42.75
		c0.415,1.916,1.644,2.126,3.306,2.109c6.614-0.063,13.229-0.025,19.842-0.025c5.832,0,11.664,0,18.012,0
		c-1.283-15.236-2.528-30.016-3.776-44.834C270.012,419.383,254.822,419.383,239.142,419.383z"/>
	<path fill-rule="evenodd" clip-rule="evenodd" fill="#79CB52" d="M419.985,216.871c29.16,0.204,51.288,13.175,67.037,37.331
		c6.048,9.277,9.683,19.582,10.983,30.646c0.066,0.567,0.457,1.096,0.696,1.642c0,5.999,0,11.999,0,17.998
		c-1.13,4.793-1.981,9.673-3.439,14.364c-5.567,17.906-16.314,31.999-31.878,42.437c-1.029,0.69-2.017,1.442-3.022,2.166
		c-8.263,4.451-16.915,7.856-26.13,9.758c-4.738,0.498-9.445,1.47-14.25,0.895c-0.015-14.911-0.03-29.821-0.046-44.731
		c3.666-0.512,7.423,0.368,11.39-0.584c0-7.329,0-14.524,0-22.18c7.617,0,14.905,0,22.145,0c0-7.665,0-14.855,0-22.512
		c-7.514,0-14.802,0-22.409,0c0-7.664,0-14.859,0-22.499c-3.93,0-7.527,0-11.125,0C419.953,246.691,419.969,231.781,419.985,216.871
		z"/>
	<path fill-rule="evenodd" clip-rule="evenodd" fill="#59ABFE" d="M434.232,373.212c9.215-1.902,17.867-5.307,26.13-9.758
		c-2.461,9.881-4.859,19.779-7.397,29.641c-7.714,29.987-15.48,59.961-23.237,89.938c-0.306,1.179-0.72,2.328-1.109,3.575
		c-0.894,0.04-1.631,0.102-2.368,0.103c-31.464,0.005-62.928,0.004-94.392-0.002c-0.622,0-1.244-0.074-1.866-0.113
		c-0.001-7.42-0.001-14.84-0.001-22.26c5.813,0,11.625,0,17.643,0c1.243-15.237,2.44-29.917,3.688-45.231
		c-7.463,0-14.397,0-21.331,0c0-7.42,0-14.84,0-22.26c7.691,0,15.383,0,23.217,0c1.289-15.347,2.523-30.052,3.798-45.232
		c-9.336,0-18.175,0-27.015,0c0-7.42,0-14.84,0.001-22.259c6.213-0.06,12.426-0.119,18.639-0.178
		c1.619,2.794,3.182,5.624,4.867,8.378c6.416,10.491,15.284,18.547,25.355,25.395c-0.893,11.112-1.787,22.223-2.698,33.553
		c17.847,0,35.108,0,52.599,0C430.222,388.539,433.22,381.121,434.232,373.212z M374.198,419.408
		c-1.263,15.063-2.495,29.762-3.756,44.8c13.328,0,26.162-0.007,38.994,0.008c1.903,0.003,2.031-1.342,2.384-2.725
		c2.944-11.564,5.977-23.105,8.9-34.675c0.599-2.368,1.851-4.642,1.38-7.408C406.257,419.408,390.453,419.408,374.198,419.408z"/>
	<path fill-rule="evenodd" clip-rule="evenodd" fill="#665252" d="M230.446,531.768c5.021-12.256,14.087-19.639,26.986-22.409
		c3.367-0.004,6.732-0.008,10.098-0.012c12.906,2.764,21.959,10.163,26.977,22.418c3.02,10.485,2.195,20.491-3.9,29.758
		c-9.023,13.717-26.715,18.941-41.561,12.347c-15.258-6.777-23.28-23.082-19.287-39.194
		C229.998,533.708,230.218,532.736,230.446,531.768z M262.609,531.718c-6.078-0.071-11.248,4.938-11.368,11.014
		c-0.12,6.067,4.855,11.29,10.921,11.466c6.199,0.179,11.534-4.994,11.556-11.206C273.74,536.912,268.692,531.788,262.609,531.718z"
		/>
	<path fill-rule="evenodd" clip-rule="evenodd" fill="#4E3636" d="M370.41,509.319c3.039,0,6.078,0,9.116,0
		c13.193,2.541,22.344,10.028,27.465,22.447c3.065,10.63,2.17,20.744-4.111,30.064c-9.112,13.522-26.638,18.585-41.347,12.034
		c-15.276-6.805-23.292-23.096-19.285-39.189c0.24-0.966,0.455-1.938,0.681-2.907C348.053,519.344,357.264,511.922,370.41,509.319z
		 M374.658,554.196c6.049,0.171,11.315-4.775,11.542-10.84c0.226-6.059-4.665-11.356-10.739-11.632
		c-6.204-0.281-11.613,4.798-11.731,11.015C363.612,548.807,368.592,554.025,374.658,554.196z"/>
	<path fill-rule="evenodd" clip-rule="evenodd" fill="#66CBFE" d="M294.507,531.765c-5.017-12.255-14.07-19.654-26.977-22.418
		c20.82-0.005,41.64-0.01,62.461-0.016c0,7.42,0,14.84,0,22.259C318.163,531.648,306.336,531.706,294.507,531.765z"/>
	<path fill-rule="evenodd" clip-rule="evenodd" fill="#59ABFE" d="M406.991,531.767c-5.121-12.419-14.271-19.906-27.465-22.447
		c17.06,0,34.118,0,51.43,0c0,7.447,0,14.715,0,22.447C422.88,531.767,414.936,531.767,406.991,531.767z"/>
	<path fill-rule="evenodd" clip-rule="evenodd" fill="#59ABFE" d="M329.992,531.59c0-7.419,0-14.839,0-22.259
		c13.474-0.004,26.947-0.008,40.42-0.012c-13.148,2.603-22.359,10.024-27.483,22.449
		C338.617,531.709,334.305,531.649,329.992,531.59z"/>
	<path fill-rule="evenodd" clip-rule="evenodd" fill="#A0E55C" d="M378.854,362.949c-10.071-6.848-18.939-14.904-25.355-25.395
		c-1.686-2.754-3.248-5.584-4.867-8.378c-4.932-11.595-7.675-23.583-7.428-36.293c0.692-35.631,28.453-68.36,63.569-74.642
		c5.026-0.899,10.066-1.747,15.213-1.37c-0.017,14.91-0.032,29.821-0.049,44.731l0.06,0.294c-3.687,0-7.373,0-11.394,0
		c0,7.616,0,14.805,0,22.466c-7.623,0-14.905,0-22.145,0c0,7.67,0,14.855,0,22.518c7.515,0,14.797,0,22.409,0
		c0,7.669,0,14.858,0,22.202c3.941,0,7.535,0,11.129,0l-0.06,0.294c0.016,14.91,0.031,29.82,0.046,44.731
		c-4.627,0.455-9.16-0.328-13.696-1.047C396.475,371.503,387.504,367.661,378.854,362.949z"/>
	<path fill-rule="evenodd" clip-rule="evenodd" fill="#FEFEFE" d="M234.04,396.515c-3.276-14.722-6.56-29.482-9.912-44.545
		c18.86,0,37.361,0,56.13,0c1.236,14.893,2.458,29.604,3.698,44.545C267.31,396.515,250.891,396.515,234.04,396.515z"/>
	<path fill-rule="evenodd" clip-rule="evenodd" fill="#FEFEFE" d="M329.991,351.613c8.84,0,17.679,0,27.015,0
		c-1.274,15.18-2.509,29.885-3.798,45.232c-7.834,0-15.525,0-23.217,0c-7.603,0-15.205,0-23.353,0
		c-1.276-15.079-2.522-29.796-3.829-45.232C312.104,351.613,321.048,351.613,329.991,351.613z"/>
	<path fill-rule="evenodd" clip-rule="evenodd" fill="#FEFEFE" d="M239.142,419.383c15.681,0,30.871,0,46.704,0
		c1.249,14.818,2.493,29.598,3.776,44.834c-6.348,0-12.18,0-18.012,0c-6.614,0-13.229-0.038-19.842,0.025
		c-1.662,0.017-2.892-0.193-3.306-2.109C245.412,448.04,242.324,433.956,239.142,419.383z"/>
	<path fill-rule="evenodd" clip-rule="evenodd" fill="#FEFEFE" d="M329.991,419.104c6.934,0,13.868,0,21.331,0
		c-1.248,15.314-2.445,29.994-3.688,45.231c-6.018,0-11.83,0-17.643,0c-5.836,0-11.672,0-17.763,0
		c-1.266-15.23-2.49-29.954-3.759-45.231C315.818,419.104,322.904,419.104,329.991,419.104z"/>
	<path fill-rule="evenodd" clip-rule="evenodd" fill="#FEFEFE" d="M378.854,362.949c8.65,4.712,17.621,8.554,27.433,10.111
		c4.536,0.72,9.069,1.502,13.696,1.047c4.805,0.575,9.512-0.397,14.25-0.895c-1.013,7.908-4.011,15.326-5.479,23.29
		c-17.49,0-34.752,0-52.599,0C377.066,385.171,377.961,374.061,378.854,362.949z"/>
	<path fill-rule="evenodd" clip-rule="evenodd" fill="#FEE9CB" d="M419.937,261.602c3.598,0,7.195,0,11.125,0
		c0,7.64,0,14.835,0,22.499c7.607,0,14.896,0,22.409,0c0,7.657,0,14.847,0,22.512c-7.239,0-14.527,0-22.145,0
		c0,7.655,0,14.851,0,22.18c-3.967,0.953-7.724,0.072-11.39,0.584l0.06-0.294c0-22.395,0-44.791,0-67.186L419.937,261.602z"/>
	<path fill-rule="evenodd" clip-rule="evenodd" fill="#FEFEFE" d="M374.198,419.408c16.255,0,32.059,0,47.902,0
		c0.471,2.767-0.781,5.04-1.38,7.408c-2.924,11.569-5.956,23.11-8.9,34.675c-0.353,1.383-0.48,2.728-2.384,2.725
		c-12.832-0.015-25.666-0.008-38.994-0.008C371.703,449.17,372.936,434.472,374.198,419.408z"/>
	<path fill-rule="evenodd" clip-rule="evenodd" fill="#FEF6E5" d="M262.609,531.718c6.083,0.07,11.131,5.194,11.11,11.273
		c-0.022,6.212-5.357,11.385-11.556,11.206c-6.066-0.176-11.041-5.398-10.921-11.466
		C251.361,536.656,256.531,531.646,262.609,531.718z"/>
	<path fill-rule="evenodd" clip-rule="evenodd" fill="#FEE9CB" d="M374.658,554.196c-6.066-0.171-11.046-5.39-10.929-11.457
		c0.118-6.217,5.527-11.296,11.731-11.015c6.074,0.275,10.965,5.573,10.739,11.632C385.974,549.421,380.707,554.367,374.658,554.196
		z"/>
	<path fill-rule="evenodd" clip-rule="evenodd" fill="#FEF6E5" d="M419.996,261.896c0,22.395,0,44.791,0,67.186
		c-3.594,0-7.188,0-11.129,0c0-7.343,0-14.533,0-22.202c-7.612,0-14.895,0-22.409,0c0-7.662,0-14.847,0-22.518
		c7.239,0,14.521,0,22.145,0c0-7.661,0-14.85,0-22.466C412.623,261.896,416.31,261.896,419.996,261.896z"/>
</g>
</svg>
