<?xml version="1.0" encoding="utf-8"?>
<!-- Generator: Adobe Illustrator 16.0.0, SVG Export Plug-In . SVG Version: 6.00 Build 0)  -->
<!DOCTYPE svg PUBLIC "-//W3C//DTD SVG 1.1//EN" "http://www.w3.org/Graphics/SVG/1.1/DTD/svg11.dtd">
<svg version="1.1" id="Capa_1" xmlns="http://www.w3.org/2000/svg" xmlns:xlink="http://www.w3.org/1999/xlink" x="0px" y="0px"
	 width="612px" height="792px" viewBox="0 0 612 792" enable-background="new 0 0 612 792" xml:space="preserve">
<g>
	<path fill-rule="evenodd" clip-rule="evenodd" fill="#B4D1D6" d="M219.062,338.261c10.274-0.073,20.547-0.145,30.821-0.213
		c0.018,8.215,0.965,16.322,2.799,24.326c-9.376,0-18.753,0-28.447,0c1.851,8.706,3.665,16.664,5.172,24.679
		c0.464,2.47,1.643,2.933,3.804,2.911c7.475-0.077,14.951-0.002,22.426-0.053c1.437-0.01,2.991,0.472,4.686-0.886
		c0-2.583,0-5.434,0-8.286c3.224,4.075,5.638,8.769,9.478,12.372c0.291,0.277,0.582,0.554,0.873,0.831l-0.073-0.053
		c0.263,0.275,0.525,0.551,0.788,0.827l-0.06-0.05c0.266,0.271,0.532,0.541,0.797,0.811l-0.068,0.008
		c1.439,2.797,4.48,4.034,6.294,6.467c-1.904,0.387-3.968-0.468-5.732,0.614c0,10.021,0,19.911,0,29.828c9.708,0,19.096,0,28.763,0
		c0-6,0-11.709,0-17.419c4.061,1.127,8.121,2.254,12.181,3.381c0,4.683,0,9.365,0,14.334c5.36,0,10.081,0,14.802,0
		c4.681,0,9.36,0,14.194,0c0-5.245,0-9.844,0-14.443c3.875-1.087,7.749-2.175,11.623-3.263c-0.262,5.819-0.019,11.603,1.04,17.459
		c9.291,0,18.435,0,27.773,0c0-10.135,0-20.022,0-29.878c-2.006-0.851-3.907-0.252-5.727-0.541
		c7.06-6.119,12.967-13.225,18.033-21.051c0,2.84,0,5.681,0,8.961c5.874,0,11.213,0,16.552,0c8.859,0,8.856,0,12.104-8.424
		c0.225-0.583,0.545-1.129,0.755-1.715c2.044-5.701,4.864-11.126,6.5-17.591c-9.678,0-18.908,0-28.138,0
		c2.011-7.892,2.896-15.917,2.821-24.053c14.973,0.053,29.945,0.106,44.918,0.159c-0.13,1.599,0.089,3.185-0.544,4.789
		c-5.897,14.941-11.716,29.914-17.564,44.875c-6.98,17.858-13.884,35.749-20.99,53.559c-3.599,9.02-6.757,18.236-11.341,26.844
		c-4.314,8.104-10.423,13.887-19.831,15.495c-4.163,0.712-8.328,1.401-12.559,1.404c-30.611,0.021-61.224,0.013-91.835,0.014
		c-10.87,0-21.742,0.088-32.61-0.06c-2.817-0.038-3.702,0.822-3.596,3.62c0.199,5.239,0.057,10.493,0.057,15.741
		c0,10.11,0.021,10.131,10.366,9.896c0.335,3.236,2.427,4.412,5.375,4.547c0.996,0.046,1.996,0.01,2.995,0.01
		c49.414,0,98.827-0.001,148.241,0.006c1.62,0,3.24,0.087,4.859,0.132c-3.527,11.789-4.942,12.859-17.646,13.36
		c-0.97,0.038-2.021-0.181-2.682,0.843c-4.485-1.031-8.98-0.863-13.481-0.117c-1.115-1.21-2.58-0.703-3.889-0.704
		c-30.938-0.028-61.877-0.028-92.816,0.001c-1.297,0.001-2.786-0.536-3.828,0.814c-4.486-1.013-8.981-0.862-13.481-0.108
		c-1.246-1.277-2.838-0.688-4.269-0.702c-9.691-0.091-19.471,0.749-28.784-2.986c0,0,0.035,0.003,0.035,0.003
		c-0.316-0.257-0.633-0.514-0.949-0.771c-3.046-4.494-3.941-9.612-4.221-14.879c-0.133-2.491-0.162-5.005-0.002-7.492
		c0.956-14.948-1.46-29.464-4.706-44.013c-9.717-43.56-19.026-87.21-28.493-130.825c-0.711-3.277-1.411-6.557-2.116-9.835
		c-0.587-2.648-1.255-5.282-1.737-7.949c-0.434-2.398-1.402-3.438-4.152-3.388c-10.795,0.196-21.596,0.071-32.395,0.066
		c-1.014-6.248,3.172-12.879,11.925-13.266c11.818-0.52,23.677-0.135,35.519-0.089c0.706,0.002,1.409,0.431,2.113,0.661
		c2.371,10.746,4.671,21.508,7.136,32.232C210.814,338.281,210.907,338.259,219.062,338.261z M272.561,445.024
		c0,9.172,0,18.064,0,27.158c9.653,0,19.047,0,28.607,0c0-9.142,0-18.035,0-27.158C291.604,445.024,282.295,445.024,272.561,445.024
		z M342.643,445.119c-10.026,0-19.429,0-29.107,0c0,8.545,0.015,16.766-0.014,24.988c-0.005,1.526,0.531,2.313,2.158,2.31
		c8.112-0.021,16.224-0.01,24.335,0.011c1.648,0.004,2.626-0.645,2.626-2.396C342.644,461.822,342.643,453.613,342.643,445.119z
		 M383.214,444.801c-9.167,0-17.654,0.026-26.14-0.021c-1.838-0.01-2.345,0.835-2.334,2.52c0.048,7.37,0.035,14.741,0.012,22.111
		c-0.004,1.462,0.387,2.396,2.078,2.383c7.87-0.062,15.739-0.043,23.607-0.169c1.364-0.021,2.77-0.575,2.771-2.408
		C383.219,461.256,383.214,453.295,383.214,444.801z M233.664,402.278c-0.154,0.576-0.386,0.954-0.322,1.272
		c1.814,9.111,3.641,18.22,5.522,27.318c0.206,0.995,0.837,1.806,2.071,1.805c6.307-0.008,12.614-0.004,18.976-0.004
		c0-10.438,0-20.33,0-30.392C250.972,402.278,242.313,402.278,233.664,402.278z M395.618,402.281c0,10.157,0,20.07,0,29.936
		c8.054,1.46,8.408,1.216,10.886-5.733c1.463-4.106,3.152-8.132,4.713-12.204c1.49-3.889,2.943-7.792,4.529-11.998
		C408.67,402.281,402.241,402.281,395.618,402.281z M242.1,445.05c1.948,9.032,3.82,17.718,5.727,26.56
		c4.159-0.08,7.992,1.479,12.088,0.476c0-9.068,0-17.972,0-27.035C253.961,445.05,248.287,445.05,242.1,445.05z M398.915,445.097
		c-3.976-0.091-3.976-0.091-3.315,8.214C397.431,450.725,398.022,448.025,398.915,445.097z"/>
	<path fill-rule="evenodd" clip-rule="evenodd" fill="#FCB701" d="M269.801,393.109c-3.839-3.603-6.254-8.297-9.477-12.37
		c-3.005-5.93-5.621-12.024-7.642-18.366c-1.834-8.004-2.782-16.11-2.799-24.326c0-0.003-0.054-0.17-0.053-0.172
		c1.119-2.752,0.54-5.728,1.142-8.546c2.152-13.642,7.9-25.707,16.098-36.696c2.569-2.745,5.138-5.489,7.707-8.234
		c9.76-8.44,20.589-15.017,33.223-18.065c25.39-6.126,48.493-1.289,69.072,14.982c1.268,1.002,2.563,1.968,3.844,2.951
		c0.076,0.209,0.129,0.424,0.158,0.644c0.276,0.271,0.551,0.543,0.826,0.815c0.473,0.477,0.947,0.952,1.42,1.427
		c-0.269,2.51,1.592,4.143,2.673,6.013c11.385,19.702,13.815,40.48,7.419,62.228c-2.91,9.892-7.779,18.813-14.406,26.816
		c-10.086,12.182-22.766,20.366-37.748,25.04c-10.982,3.427-22.219,3.826-33.597,2.314c-9.51-1.265-18.293-4.486-26.729-8.945
		c-3.033-1.603-5.393-4.338-8.873-5.136c0,0,0.068-0.008,0.068-0.009c-0.038-0.495-0.306-0.763-0.797-0.81c0,0,0.06,0.05,0.06,0.048
		c-0.263-0.276-0.525-0.551-0.788-0.826c0,0,0.073,0.053,0.073,0.051C270.383,393.662,270.092,393.385,269.801,393.109z
		 M381.872,341.457c0.311-4.843-0.264-9.521-1.64-14.094c-2.879-9.572-6.791-18.661-15.353-24.517
		c-18.803-12.861-44.556-11.726-62.399,2.522c-18.27,14.587-24.482,33.536-19.653,56.149c1.932,9.051,5.714,17.956,13.019,23.451
		c17.544,13.196,37.208,14.771,56.623,4.826C371.732,379.927,381.627,363.342,381.872,341.457z"/>
	<path fill-rule="evenodd" clip-rule="evenodd" fill="#9BB9C3" d="M250.369,514.487c-10.344,0.234-10.366,0.214-10.366-9.896
		c0-5.248,0.142-10.502-0.057-15.741c-0.106-2.798,0.779-3.658,3.596-3.62c10.868,0.147,21.74,0.06,32.61,0.06
		c30.612-0.001,61.224,0.008,91.835-0.014c4.23-0.003,8.396-0.692,12.559-1.404c9.408-1.608,15.517-7.391,19.831-15.495
		c4.584-8.607,7.742-17.824,11.341-26.844c7.106-17.81,14.01-35.7,20.99-53.559c5.849-14.96,11.667-29.933,17.564-44.875
		c0.633-1.604,0.414-3.189,0.544-4.789c8.292,0.608,13.013,8.746,9.791,17.001c-7.518,19.273-15.05,38.541-22.627,57.79
		c-7.943,20.177-15.932,40.335-23.934,60.488c-1.76,4.431-4.214,8.491-7.136,12.25c-4.821,6.203-11.499,8.914-19.04,9.921
		c-6.325,0.845-12.688,0.76-19.052,0.758c-37.72-0.011-75.44,0-113.161,0.005c-1.492,0-2.984,0-4.804,0
		C250.012,502.605,250.862,508.577,250.369,514.487z"/>
	<path fill-rule="evenodd" clip-rule="evenodd" fill="#F3A410" d="M272.059,395.484c3.48,0.798,5.84,3.534,8.873,5.136
		c8.436,4.459,17.219,7.681,26.729,8.945c11.378,1.512,22.614,1.112,33.597-2.314c14.982-4.674,27.662-12.858,37.748-25.04
		c6.627-8.003,11.496-16.924,14.406-26.816c6.396-21.748,3.966-42.526-7.419-62.228c-1.081-1.871-2.941-3.503-2.673-6.013
		c6.233,5.48,10.369,12.5,14.404,19.595c3.679,8.15,6.553,16.535,7.445,25.498c-0.605,2.074,0.795,3.9,0.729,5.906
		c0.074,8.135-0.811,16.16-2.82,24.05c-1.833,6.57-4.714,12.707-7.774,18.77c-5.066,7.826-10.974,14.932-18.033,21.051
		c-7.133,5.321-14.704,9.862-23.087,12.96c-3.874,1.088-7.748,2.176-11.621,3.263c-9.659,1.564-19.326,1.403-28.998,0.109
		c-4.06-1.127-8.12-2.254-12.18-3.381c-8.366-3.122-15.895-7.727-23.032-13.023C276.539,399.518,273.498,398.281,272.059,395.484z"
		/>
	<path fill-rule="evenodd" clip-rule="evenodd" fill="#65B5F5" d="M267.07,292.633c-8.198,10.989-13.946,23.054-16.098,36.694
		c-0.323-0.053-0.646-0.104-0.97-0.154c0-26.298,0-52.595,0-79.146c-3.609-0.716-6.954-0.292-10.262-0.376
		c-1.805-0.045-3.515-0.156-4.522-1.966c-1.088-1.955,0.15-3.283,1.233-4.674c7.421-9.532,14.834-19.07,22.25-28.606
		c6.75,8.866,13.361,17.843,20.329,26.534c2.202,2.746,3.827,5.149,2.28,8.654c-2.209,0.067-4.419,0.133-6.628,0.2
		c-1-0.016-2.019,0.094-2.993-0.069c-3.817-0.638-4.843,0.885-4.763,4.696C267.191,267.154,267.053,279.896,267.07,292.633z"/>
	<path fill-rule="evenodd" clip-rule="evenodd" fill="#65B5F5" d="M397.725,306.748c-4.035-7.094-8.171-14.115-14.404-19.595
		c-0.473-0.476-0.947-0.951-1.421-1.427c-0.274-0.271-0.55-0.543-0.825-0.815c-0.029-0.22-0.082-0.435-0.158-0.644
		c0-11.323,0-22.645,0-34.229c-3.335-0.793-6.675-0.269-9.969-0.387c-1.779-0.063-3.635-0.033-4.611-1.804
		c-1.078-1.955,0.007-3.588,1.221-5.087c7.348-9.08,13.968-18.735,21.693-27.519c1.798,0.139,2.308,1.817,3.165,2.901
		c5.986,7.567,11.798,15.273,17.771,22.852c2.048,2.597,3.934,5.086,2.389,8.61c-2.271,0.048-4.542,0.097-6.813,0.145
		c-0.747-0.001-1.494-0.003-2.242-0.003c-5.235-0.004-5.237-0.003-5.237,5.199c-0.001,15.943,0.011,31.887-0.019,47.83
		C398.261,304.106,398.672,305.531,397.725,306.748z"/>
	<path fill-rule="evenodd" clip-rule="evenodd" fill="#47585A" d="M378.029,533.268c4.501-0.746,8.996-0.914,13.482,0.116
		c5.404,2.434,10.607,5.138,13.906,10.389c8.493,14.324,2.092,28.207-7.177,34.317c-9.098,5.999-21.005,5.36-29.563-1.665
		c-8.065-6.62-10.985-18.836-6.813-28.6c0.585-1.369,1.288-2.688,1.937-4.03C367.394,538.73,372.416,535.601,378.029,533.268z
		 M375.061,557.225c-0.058,5.53,4.084,9.771,9.526,9.757c5.182-0.015,9.468-4.302,9.521-9.521c0.053-5.194-4.144-9.627-9.271-9.791
		C379.513,547.5,375.117,551.795,375.061,557.225z"/>
	<path fill-rule="evenodd" clip-rule="evenodd" fill="#47585A" d="M264.015,533.271c4.5-0.754,8.996-0.904,13.482,0.107
		c5.416,2.436,10.614,5.162,13.938,10.399c8.108,13.827,2.565,26.831-5.684,33.213c-9.134,7.066-21.725,6.916-30.774-0.329
		c-8.657-6.932-11.502-19.648-6.661-29.843c0.48-1.012,1.061-1.976,1.595-2.961C253.319,538.606,258.485,535.695,264.015,533.271z
		 M261.052,557.558c0.046,5.303,4.187,9.413,9.493,9.424c5.327,0.011,9.713-4.506,9.569-9.853c-0.141-5.205-4.506-9.503-9.609-9.459
		C265.151,547.714,261.005,552.052,261.052,557.558z"/>
	<path fill-rule="evenodd" clip-rule="evenodd" fill="#9BB9C3" d="M291.436,543.777c-3.325-5.237-8.522-7.964-13.938-10.399
		c1.041-1.35,2.53-0.813,3.827-0.813c30.939-0.029,61.878-0.029,92.816-0.001c1.309,0.001,2.773-0.506,3.889,0.704
		c-5.613,2.333-10.636,5.463-14.228,10.527C339.68,543.789,315.558,543.783,291.436,543.777z"/>
	<path fill-rule="evenodd" clip-rule="evenodd" fill="#44A5F3" d="M397.725,306.748c0.947-1.217,0.536-2.642,0.539-3.972
		c0.029-15.943,0.018-31.887,0.019-47.83c0-5.202,0.002-5.203,5.237-5.199c0.748,0,1.495,0.002,2.242,0.003
		c0.004,26.325,0.018,52.649-0.014,78.974c-0.001,1.172,0.535,2.504-0.578,3.521C404.277,323.283,401.403,314.898,397.725,306.748z"
		/>
	<path fill-rule="evenodd" clip-rule="evenodd" fill="#9BB9C3" d="M152.225,310.499c10.799,0.005,21.6,0.129,32.395-0.066
		c2.75-0.05,3.718,0.99,4.152,3.388c0.482,2.667,1.15,5.3,1.737,7.949c-8.747-0.001-17.493,0.049-26.239-0.021
		C157.537,321.695,152.667,317.072,152.225,310.499z"/>
	<path fill-rule="evenodd" clip-rule="evenodd" fill="#9BB9C3" d="M405.418,543.772c-3.299-5.251-8.502-7.955-13.906-10.389
		c0.66-1.022,1.711-0.804,2.681-0.842c12.704-0.501,14.119-1.571,17.646-13.36c6.733,1.166,10.869,6.409,10.433,13.226
		c-0.372,5.826-5.761,10.925-11.991,11.294C408.664,543.798,407.039,543.753,405.418,543.772z"/>
	<path fill-rule="evenodd" clip-rule="evenodd" fill="#9BB9C3" d="M219.062,338.261c-8.155-0.001-8.248,0.021-10.144-8.224
		c-2.465-10.724-4.765-21.486-7.136-32.232c4.827-0.437,9.407,4.642,10.517,9.903C214.453,317.914,216.796,328.079,219.062,338.261z
		"/>
	<path fill-rule="evenodd" clip-rule="evenodd" fill="#44A5F3" d="M281.31,249.594c1.546-3.504-0.079-5.908-2.28-8.654
		c-6.968-8.691-13.579-17.668-20.329-26.534c2.504-3.86,4.382-4.129,7.12-0.643c7.636,9.725,15.155,19.541,22.697,29.339
		c0.973,1.264,2.16,2.518,1.265,4.37c-0.982,2.032-2.753,2.324-4.73,2.234C283.807,249.649,282.558,249.63,281.31,249.594z"/>
	<path fill-rule="evenodd" clip-rule="evenodd" fill="#44A5F3" d="M412.574,249.605c1.545-3.523-0.341-6.013-2.389-8.61
		c-5.973-7.579-11.784-15.285-17.771-22.852c-0.857-1.084-1.367-2.762-3.165-2.901c2.54-4.949,4.782-5.173,8.129-0.832
		c6.995,9.075,13.999,18.144,20.998,27.216c1.428,1.851,3.484,3.617,2.109,6.262c-1.299,2.498-3.875,1.712-6.048,1.806
		C413.819,249.721,413.195,249.638,412.574,249.605z"/>
	<path fill-rule="evenodd" clip-rule="evenodd" fill="#44A5F3" d="M267.07,292.633c-0.017-12.738,0.121-25.479-0.145-38.212
		c-0.08-3.811,0.946-5.334,4.763-4.696c0.974,0.163,1.994,0.053,2.993,0.069c0.032,11.535,0.063,23.07,0.095,34.605
		C272.208,287.145,269.639,289.889,267.07,292.633z"/>
	<path fill-rule="evenodd" clip-rule="evenodd" fill="#9BB9C3" d="M264.015,533.271c-5.53,2.425-10.696,5.336-14.104,10.587
		c-1.586-1.548-3.855-1.429-5.704-2.341c-5.54-2.731-10.926-5.629-13.244-11.935c9.313,3.735,19.092,2.896,28.784,2.986
		C261.177,532.582,262.769,531.993,264.015,533.271z"/>
	<path fill-rule="evenodd" clip-rule="evenodd" fill="#B4D1D6" d="M250.003,329.174c0.324,0.05,0.647,0.101,0.97,0.154
		c-0.603,2.82-0.023,5.796-1.143,8.548C249.887,334.977,249.945,332.075,250.003,329.174z"/>
	<path fill-rule="evenodd" clip-rule="evenodd" fill="#9BB9C3" d="M230.048,528.813c0.316,0.258,0.633,0.515,0.949,0.771
		C230.681,529.328,230.364,529.071,230.048,528.813z"/>
	<path fill-rule="evenodd" clip-rule="evenodd" fill="#FEFEFE" d="M252.683,362.373c2.021,6.342,4.636,12.436,7.642,18.366
		c0,2.85,0,5.702,0,8.284c-1.694,1.358-3.249,0.876-4.686,0.886c-7.475,0.051-14.951-0.023-22.426,0.053
		c-2.161,0.022-3.34-0.441-3.804-2.911c-1.508-8.015-3.322-15.973-5.172-24.679C233.93,362.373,243.306,362.373,252.683,362.373z"/>
	<path fill-rule="evenodd" clip-rule="evenodd" fill="#FEFEFE" d="M272.561,445.024c9.735,0,19.043,0,28.607,0
		c0,9.123,0,18.017,0,27.158c-9.56,0-18.954,0-28.607,0C272.561,463.089,272.561,454.196,272.561,445.024z"/>
	<path fill-rule="evenodd" clip-rule="evenodd" fill="#FEFEFE" d="M342.643,445.119c0,8.494,0.001,16.703-0.002,24.912
		c0,1.752-0.978,2.4-2.626,2.396c-8.111-0.021-16.223-0.031-24.335-0.011c-1.627,0.004-2.163-0.783-2.158-2.31
		c0.028-8.223,0.014-16.443,0.014-24.988C323.214,445.119,332.616,445.119,342.643,445.119z"/>
	<path fill-rule="evenodd" clip-rule="evenodd" fill="#FEFEFE" d="M395.304,380.972c3.061-6.063,5.941-12.2,7.774-18.77
		c9.229,0.001,18.459,0.001,28.137,0.001c-1.636,6.464-4.456,11.89-6.5,17.591c-0.21,0.586-0.53,1.132-0.755,1.715
		c-3.248,8.423-3.245,8.424-12.104,8.424c-5.339,0-10.678,0-16.552,0C395.304,386.653,395.304,383.813,395.304,380.972z"/>
	<path fill-rule="evenodd" clip-rule="evenodd" fill="#FEFEFE" d="M383.214,444.801c0,8.494,0.005,16.455-0.005,24.415
		c-0.002,1.833-1.407,2.387-2.771,2.408c-7.868,0.126-15.737,0.107-23.607,0.169c-1.691,0.013-2.082-0.921-2.078-2.383
		c0.023-7.37,0.036-14.741-0.012-22.111c-0.011-1.685,0.496-2.529,2.334-2.52C365.56,444.827,374.047,444.801,383.214,444.801z"/>
	<path fill-rule="evenodd" clip-rule="evenodd" fill="#FEFEFE" d="M233.664,402.278c8.649,0,17.309,0,26.248,0
		c0,10.062,0,19.953,0,30.392c-6.362,0-12.669-0.004-18.976,0.004c-1.234,0.001-1.865-0.81-2.071-1.805
		c-1.882-9.099-3.708-18.207-5.522-27.318C233.278,403.232,233.509,402.854,233.664,402.278z"/>
	<path fill-rule="evenodd" clip-rule="evenodd" fill="#FEFEFE" d="M278.353,401.951c7.137,5.297,14.666,9.901,23.032,13.023
		c-0.001,5.71-0.001,11.419-0.001,17.419c-9.667,0-19.055,0-28.763,0c0-9.917,0-19.808,0-29.828
		C274.385,401.483,276.449,402.338,278.353,401.951z"/>
	<path fill-rule="evenodd" clip-rule="evenodd" fill="#FEFEFE" d="M354.184,414.983c8.383-3.098,15.954-7.639,23.087-12.96
		c1.819,0.289,3.721-0.31,5.727,0.541c0,9.855,0,19.743,0,29.878c-9.339,0-18.482,0-27.773,0
		C354.165,426.586,353.922,420.803,354.184,414.983z"/>
	<path fill-rule="evenodd" clip-rule="evenodd" fill="#FEFEFE" d="M395.618,402.281c6.623,0,13.052,0,20.128,0
		c-1.586,4.206-3.039,8.109-4.529,11.998c-1.561,4.072-3.25,8.098-4.713,12.204c-2.478,6.949-2.832,7.193-10.886,5.733
		C395.618,422.352,395.618,412.438,395.618,402.281z"/>
	<path fill-rule="evenodd" clip-rule="evenodd" fill="#FEFEFE" d="M242.1,445.05c6.187,0,11.862,0,17.814,0
		c0,9.063,0,17.967,0,27.035c-4.096,1.004-7.929-0.556-12.088-0.476C245.92,462.768,244.048,454.082,242.1,445.05z"/>
	<path fill-rule="evenodd" clip-rule="evenodd" fill="#FEFEFE" d="M313.564,418.355c9.672,1.294,19.339,1.455,28.998-0.109
		c-0.002,4.6-0.002,9.198-0.002,14.443c-4.834,0-9.514,0-14.194,0c-4.721,0-9.441,0-14.802,0
		C313.564,427.721,313.564,423.038,313.564,418.355z"/>
	<path fill-rule="evenodd" clip-rule="evenodd" fill="#FEFEFE" d="M398.915,445.097c-0.893,2.929-1.484,5.628-3.315,8.214
		C394.939,445.006,394.939,445.006,398.915,445.097z"/>
	<path fill-rule="evenodd" clip-rule="evenodd" fill="#F3A410" d="M271.33,394.665c0.491,0.047,0.759,0.314,0.797,0.81
		C271.861,395.206,271.595,394.936,271.33,394.665z"/>
	<path fill-rule="evenodd" clip-rule="evenodd" fill="#F3A410" d="M269.801,393.109c0.291,0.276,0.582,0.552,0.873,0.83
		C270.383,393.663,270.092,393.386,269.801,393.109z"/>
	<path fill-rule="evenodd" clip-rule="evenodd" fill="#F3A410" d="M270.602,393.888c0.263,0.275,0.525,0.55,0.788,0.826
		C271.127,394.438,270.864,394.163,270.602,393.888z"/>
	<path fill-rule="evenodd" clip-rule="evenodd" fill="#FED92D" d="M381.872,341.457c-0.245,21.886-10.14,38.471-29.403,48.337
		c-19.415,9.944-39.079,8.37-56.623-4.826c-7.305-5.495-11.086-14.4-13.019-23.451c-4.829-22.613,1.384-41.562,19.653-56.149
		c17.844-14.248,43.597-15.383,62.399-2.522c8.562,5.856,12.474,14.945,15.353,24.517
		C381.608,331.936,382.183,336.613,381.872,341.457z M345.043,322.439c-0.532-4.017-4.193-6.347-8.278-8.117
		c-2.033-0.881-3.164-1.766-3.06-4.28c0.174-4.167-2.586-7.081-6.044-6.969c-2.97,0.096-5.831,3.409-5.835,7.105
		c-0.001,2.212-0.518,3.421-2.772,4.542c-6.734,3.347-11.358,11.835-9.363,19.309c2.165,8.112,9.949,14.309,17.127,13.269
		c1.659-0.241,3.268,0.195,4.731,0.871c1.983,0.917,3.101,2.65,2.854,4.821c-0.246,2.162-1.08,4.38-3.62,4.613
		c-3.667,0.337-7.389,0.957-10.472-2.329c-2.478-2.64-5.605-2.525-8.005-0.336c-2.289,2.088-2.462,5.85-0.225,8.464
		c1.869,2.184,3.844,4.424,6.728,5.19c2.42,0.642,3.029,1.983,3.028,4.322c-0.001,4.402,2.302,6.656,6.312,6.626
		c3.434-0.025,5.641-2.358,5.565-6.489c-0.046-2.519,0.916-3.737,3.089-4.855c5.988-3.082,9.435-8.13,9.672-14.903
		c0.353-10.065-7.95-17.855-18.84-18.004c-3.591-0.049-6.347-2.084-6.488-4.79c-0.164-3.162,2.393-5.496,6.101-5.735
		c2.896-0.187,5.341,0.429,7.427,2.67c2.1,2.256,4.841,2.418,7.601,1.291C344.59,327.776,345.088,325.74,345.043,322.439z"/>
	<path fill-rule="evenodd" clip-rule="evenodd" fill="#F3A410" d="M381.074,284.911c0.275,0.271,0.551,0.543,0.825,0.815
		C381.625,285.455,381.351,285.183,381.074,284.911z"/>
	<path fill-rule="evenodd" clip-rule="evenodd" fill="#FEFEFE" d="M375.061,557.225c0.057-5.43,4.452-9.725,9.776-9.555
		c5.128,0.164,9.324,4.597,9.271,9.791c-0.054,5.219-4.34,9.506-9.521,9.521C379.145,566.996,375.003,562.755,375.061,557.225z"/>
	<path fill-rule="evenodd" clip-rule="evenodd" fill="#FEFEFE" d="M261.052,557.558c-0.047-5.506,4.099-9.844,9.453-9.888
		c5.103-0.044,9.468,4.254,9.609,9.459c0.144,5.347-4.243,9.863-9.569,9.853C265.239,566.971,261.098,562.86,261.052,557.558z"/>
	<path fill-rule="evenodd" clip-rule="evenodd" fill="#FCB701" d="M345.043,322.439c0.045,3.301-0.453,5.337-2.769,6.284
		c-2.76,1.127-5.501,0.965-7.601-1.291c-2.086-2.241-4.53-2.857-7.427-2.67c-3.708,0.239-6.265,2.574-6.101,5.735
		c0.142,2.706,2.897,4.741,6.488,4.79c10.89,0.149,19.192,7.939,18.84,18.004c-0.237,6.772-3.684,11.821-9.672,14.903
		c-2.173,1.118-3.135,2.336-3.089,4.855c0.075,4.131-2.132,6.464-5.565,6.489c-4.01,0.029-6.313-2.225-6.312-6.626
		c0.001-2.339-0.608-3.68-3.028-4.322c-2.884-0.766-4.858-3.006-6.728-5.19c-2.237-2.614-2.064-6.376,0.225-8.464
		c2.399-2.188,5.527-2.304,8.005,0.336c3.083,3.285,6.805,2.666,10.472,2.329c2.54-0.233,3.374-2.451,3.62-4.613
		c0.247-2.171-0.87-3.904-2.854-4.821c-1.464-0.676-3.072-1.112-4.731-0.871c-7.178,1.041-14.962-5.156-17.127-13.269
		c-1.995-7.474,2.629-15.961,9.363-19.309c2.255-1.12,2.771-2.329,2.772-4.542c0.004-3.696,2.865-7.009,5.835-7.105
		c3.458-0.111,6.218,2.803,6.044,6.969c-0.104,2.514,1.026,3.399,3.06,4.28C340.85,316.092,344.511,318.422,345.043,322.439z"/>
</g>
</svg>
